<?xml version="1.0" encoding="us-ascii" standalone="no"?><svg xmlns="http://www.w3.org/2000/svg" xmlns:xlink="http://www.w3.org/1999/xlink" contentStyleType="text/css" height="492px" preserveAspectRatio="none" style="width:324px;height:492px;background:#FFFFFF;" version="1.1" viewBox="0 0 324 492" width="324px" zoomAndPan="magnify"><defs/><g><!--class PlantColor--><g id="elem_PlantColor"><rect codeLine="1" fill="#F1F1F1" height="146.9297" id="PlantColor" rx="2.5" ry="2.5" style="stroke:#181818;stroke-width:0.5;" width="115" x="7" y="7"/><ellipse cx="22" cy="23" fill="#EB937F" rx="11" ry="11" style="stroke:#181818;stroke-width:1.0;"/><path d="M26.1143,29 L18.3945,29 L18.3945,16.6069 L26.1143,16.6069 L26.1143,18.7651 L20.8433,18.7651 L20.8433,21.438 L25.6162,21.438 L25.6162,23.5962 L20.8433,23.5962 L20.8433,26.8418 L26.1143,26.8418 Z " fill="#000000"/><ellipse cx="41" cy="22.5" fill="#84BE84" rx="3" ry="3" style="stroke:#038048;stroke-width:1.0;"/><text fill="#000000" font-family="sans-serif" font-size="14" lengthAdjust="spacing" textLength="72" x="47" y="28.291">PlantColor</text><line style="stroke:#181818;stroke-width:0.5;" x1="8" x2="121" y1="39" y2="39"/><text fill="#000000" font-family="sans-serif" font-size="14" lengthAdjust="spacing" textLength="49" x="13" y="56.5352">GREEN,</text><text fill="#000000" font-family="sans-serif" font-size="14" lengthAdjust="spacing" textLength="58" x="13" y="73.0234">YELLOW,</text><text fill="#000000" font-family="sans-serif" font-size="14" lengthAdjust="spacing" textLength="31" x="13" y="89.5117">RED,</text><text fill="#000000" font-family="sans-serif" font-size="14" lengthAdjust="spacing" textLength="37" x="13" y="106">BLUE,</text><text fill="#000000" font-family="sans-serif" font-size="14" lengthAdjust="spacing" textLength="62" x="13" y="122.4883">ORANGE,</text><text fill="#000000" font-family="sans-serif" font-size="14" lengthAdjust="spacing" textLength="65" x="13" y="138.9766">VIOLETTE</text><line style="stroke:#181818;stroke-width:0.5;" x1="8" x2="121" y1="145.9297" y2="145.9297"/></g><!--class Plant--><g id="elem_Plant"><rect codeLine="10" fill="#F1F1F1" height="163.418" id="Plant" rx="2.5" ry="2.5" style="stroke:#181818;stroke-width:0.5;" width="176" x="126.5" y="213.93"/><ellipse cx="187.75" cy="229.93" fill="#A9DCDF" rx="11" ry="11" style="stroke:#181818;stroke-width:1.0;"/><path d="M187.8633,225.2781 L186.7095,230.3499 L189.0254,230.3499 Z M186.3691,223.0369 L189.3657,223.0369 L192.7109,235.43 L190.2622,235.43 L189.4985,232.367 L186.2197,232.367 L185.4727,235.43 L183.0239,235.43 Z " fill="#000000"/><ellipse cx="213.25" cy="229.43" fill="#84BE84" rx="3" ry="3" style="stroke:#038048;stroke-width:1.0;"/><text fill="#000000" font-family="sans-serif" font-size="14" font-style="italic" lengthAdjust="spacing" textLength="34" x="219.25" y="235.221">Plant</text><line style="stroke:#181818;stroke-width:0.5;" x1="127.5" x2="301.5" y1="245.93" y2="245.93"/><rect fill="none" height="6" style="stroke:#C82930;stroke-width:1.0;" width="6" x="134.5" y="256.6741"/><text fill="#000000" font-family="sans-serif" font-size="14" lengthAdjust="spacing" textLength="100" x="146.5" y="263.4652">height: double</text><rect fill="none" height="6" style="stroke:#C82930;stroke-width:1.0;" width="6" x="134.5" y="273.1624"/><text fill="#000000" font-family="sans-serif" font-size="14" lengthAdjust="spacing" textLength="90" x="146.5" y="279.9534">family: String</text><rect fill="none" height="6" style="stroke:#C82930;stroke-width:1.0;" width="6" x="134.5" y="289.6507"/><text fill="#000000" font-family="sans-serif" font-size="14" lengthAdjust="spacing" textLength="87" x="146.5" y="296.4417">name: String</text><line style="stroke:#181818;stroke-width:0.5;" x1="127.5" x2="301.5" y1="303.3948" y2="303.3948"/><ellipse cx="137.5" cy="317.139" fill="#84BE84" rx="3" ry="3" style="stroke:#038048;stroke-width:1.0;"/><text fill="#000000" font-family="sans-serif" font-size="14" lengthAdjust="spacing" textLength="133" x="146.5" y="320.93">getHeight(): double</text><ellipse cx="137.5" cy="333.6273" fill="#84BE84" rx="3" ry="3" style="stroke:#038048;stroke-width:1.0;"/><text fill="#000000" font-family="sans-serif" font-size="14" lengthAdjust="spacing" textLength="125" x="146.5" y="337.4183">getFamily(): String</text><ellipse cx="137.5" cy="350.1155" fill="#84BE84" rx="3" ry="3" style="stroke:#038048;stroke-width:1.0;"/><text fill="#000000" font-family="sans-serif" font-size="14" lengthAdjust="spacing" textLength="120" x="146.5" y="353.9066">getName(): String</text><ellipse cx="137.5" cy="366.6038" fill="#84BE84" rx="3" ry="3" style="stroke:#038048;stroke-width:1.0;"/><text fill="#000000" font-family="sans-serif" font-size="14" font-style="italic" lengthAdjust="spacing" textLength="150" x="146.5" y="370.3948">getColor(): PlantColor</text></g><!--class Comparable--><g id="elem_Comparable"><rect fill="#F1F1F1" height="48" id="Comparable" rx="2.5" ry="2.5" style="stroke:#181818;stroke-width:0.5;" width="116" x="156.5" y="56.47"/><ellipse cx="171.5" cy="72.47" fill="#B4A7E5" rx="11" ry="11" style="stroke:#181818;stroke-width:1.0;"/><path d="M167.4277,68.2351 L167.4277,66.0769 L174.8071,66.0769 L174.8071,68.2351 L172.3418,68.2351 L172.3418,76.3118 L174.8071,76.3118 L174.8071,78.47 L167.4277,78.47 L167.4277,76.3118 L169.8931,76.3118 L169.8931,68.2351 Z " fill="#000000"/><text fill="#000000" font-family="sans-serif" font-size="14" font-style="italic" lengthAdjust="spacing" textLength="84" x="185.5" y="77.761">Comparable</text><line style="stroke:#181818;stroke-width:0.5;" x1="157.5" x2="271.5" y1="88.47" y2="88.47"/><line style="stroke:#181818;stroke-width:0.5;" x1="157.5" x2="271.5" y1="96.47" y2="96.47"/></g><!--class Flower--><g id="elem_Flower"><rect codeLine="21" fill="#F1F1F1" height="48" id="Flower" rx="2.5" ry="2.5" style="stroke:#181818;stroke-width:0.5;" width="89" x="109" y="437.35"/><ellipse cx="124" cy="453.35" fill="#ADD1B2" rx="11" ry="11" style="stroke:#181818;stroke-width:1.0;"/><path d="M126.9731,458.9931 Q126.3921,459.2919 125.7529,459.4413 Q125.1138,459.5907 124.4082,459.5907 Q121.9014,459.5907 120.5815,457.9389 Q119.2617,456.287 119.2617,453.1659 Q119.2617,450.0365 120.5815,448.3847 Q121.9014,446.7328 124.4082,446.7328 Q125.1138,446.7328 125.7612,446.8822 Q126.4087,447.0316 126.9731,447.3305 L126.9731,450.0531 Q126.3423,449.4721 125.7488,449.2023 Q125.1553,448.9325 124.5244,448.9325 Q123.1797,448.9325 122.4949,449.9992 Q121.8101,451.0658 121.8101,453.1659 Q121.8101,455.2577 122.4949,456.3244 Q123.1797,457.391 124.5244,457.391 Q125.1553,457.391 125.7488,457.1212 Q126.3423,456.8515 126.9731,456.2704 Z " fill="#000000"/><ellipse cx="143" cy="452.85" fill="#84BE84" rx="3" ry="3" style="stroke:#038048;stroke-width:1.0;"/><text fill="#000000" font-family="sans-serif" font-size="14" lengthAdjust="spacing" textLength="46" x="149" y="458.641">Flower</text><line style="stroke:#181818;stroke-width:0.5;" x1="110" x2="197" y1="469.35" y2="469.35"/><line style="stroke:#181818;stroke-width:0.5;" x1="110" x2="197" y1="477.35" y2="477.35"/></g><!--class Shrub--><g id="elem_Shrub"><rect codeLine="24" fill="#F1F1F1" height="48" id="Shrub" rx="2.5" ry="2.5" style="stroke:#181818;stroke-width:0.5;" width="84" x="233.5" y="437.35"/><ellipse cx="248.5" cy="453.35" fill="#ADD1B2" rx="11" ry="11" style="stroke:#181818;stroke-width:1.0;"/><path d="M251.4731,458.9931 Q250.8921,459.2919 250.2529,459.4413 Q249.6138,459.5907 248.9082,459.5907 Q246.4014,459.5907 245.0815,457.9389 Q243.7617,456.287 243.7617,453.1659 Q243.7617,450.0365 245.0815,448.3847 Q246.4014,446.7328 248.9082,446.7328 Q249.6138,446.7328 250.2612,446.8822 Q250.9087,447.0316 251.4731,447.3305 L251.4731,450.0531 Q250.8423,449.4721 250.2488,449.2023 Q249.6553,448.9325 249.0244,448.9325 Q247.6797,448.9325 246.9949,449.9992 Q246.3101,451.0658 246.3101,453.1659 Q246.3101,455.2577 246.9949,456.3244 Q247.6797,457.391 249.0244,457.391 Q249.6553,457.391 250.2488,457.1212 Q250.8423,456.8515 251.4731,456.2704 Z " fill="#000000"/><ellipse cx="267.5" cy="452.85" fill="#84BE84" rx="3" ry="3" style="stroke:#038048;stroke-width:1.0;"/><text fill="#000000" font-family="sans-serif" font-size="14" lengthAdjust="spacing" textLength="41" x="273.5" y="458.641">Shrub</text><line style="stroke:#181818;stroke-width:0.5;" x1="234.5" x2="316.5" y1="469.35" y2="469.35"/><line style="stroke:#181818;stroke-width:0.5;" x1="234.5" x2="316.5" y1="477.35" y2="477.35"/></g><!--reverse link Comparable to Plant--><g id="link_Comparable_Plant"><path d="M214.5,122.69 C214.5,148.8 214.5,174.67 214.5,213.67 " fill="none" id="Comparable-backto-Plant" style="stroke:#181818;stroke-width:1.0;stroke-dasharray:7.0,7.0;"/><polygon fill="none" points="214.5,104.69,208.5,122.69,220.5,122.69,214.5,104.69" style="stroke:#181818;stroke-width:1.0;"/></g><!--reverse link Plant to Flower--><g id="link_Plant_Flower"><path d="M178.0712,394.4057 C169.9612,416.1557 168.12,421.13 162.23,436.91 " fill="none" id="Plant-backto-Flower" style="stroke:#181818;stroke-width:1.0;"/><polygon fill="none" points="184.36,377.54,172.4493,392.3094,183.6931,396.5019,184.36,377.54" style="stroke:#181818;stroke-width:1.0;"/></g><!--reverse link Plant to Shrub--><g id="link_Plant_Shrub"><path d="M250.9288,394.4057 C259.0388,416.1557 260.88,421.13 266.77,436.91 " fill="none" id="Plant-backto-Shrub" style="stroke:#181818;stroke-width:1.0;"/><polygon fill="none" points="244.64,377.54,245.3069,396.5019,256.5507,392.3094,244.64,377.54" style="stroke:#181818;stroke-width:1.0;"/></g><!--SRC=[VP793e8m54NtViLRQj0VSETGr8I0mIakYpo1f8Cf9Mg8_ov3H4hGjshkFRrv0q1T5egCmvPHeHUIIGNv05gryWbnnuPq9exZdKpD9qjJc3i7OYgUFtDN7UsuyHootvD6V0sQfqM3L2jwqN1XD4th5Y7XDuOSXKvX8VcDAXemxFGyYJ69OZs5K6Q5QtfNoXFsdC9EgqH4fYSenyOnB2j2lQvIXwFUt1Amg-WIw0al0RV8_sNddt5VK93LAKhqUvZU7TMhiPcyem9yQ1JXPrFvdm-xM6M1oRVmDm00]--></g></svg>