<?xml version="1.0" encoding="us-ascii" standalone="no"?><svg xmlns="http://www.w3.org/2000/svg" xmlns:xlink="http://www.w3.org/1999/xlink" contentStyleType="text/css" height="151px" preserveAspectRatio="none" style="width:402px;height:151px;background:#FFFFFF;" version="1.1" viewBox="0 0 402 151" width="402px" zoomAndPan="magnify"><defs/><g><!--class PlantBed--><g id="elem_PlantBed"><rect codeLine="1" fill="#F1F1F1" height="130.4414" id="PlantBed" rx="2.5" ry="2.5" style="stroke:#181818;stroke-width:0.5;" width="381" x="7" y="7"/><ellipse cx="152.25" cy="23" fill="#ADD1B2" rx="11" ry="11" style="stroke:#181818;stroke-width:1.0;"/><path d="M155.2231,28.6431 Q154.6421,28.9419 154.0029,29.0913 Q153.3638,29.2407 152.6582,29.2407 Q150.1514,29.2407 148.8315,27.5889 Q147.5117,25.937 147.5117,22.8159 Q147.5117,19.6865 148.8315,18.0347 Q150.1514,16.3828 152.6582,16.3828 Q153.3638,16.3828 154.0112,16.5322 Q154.6587,16.6816 155.2231,16.9805 L155.2231,19.7031 Q154.5923,19.1221 153.9988,18.8523 Q153.4053,18.5825 152.7744,18.5825 Q151.4297,18.5825 150.7449,19.6492 Q150.0601,20.7158 150.0601,22.8159 Q150.0601,24.9077 150.7449,25.9744 Q151.4297,27.041 152.7744,27.041 Q153.4053,27.041 153.9988,26.7712 Q154.5923,26.5015 155.2231,25.9204 Z " fill="#000000"/><ellipse cx="177.75" cy="22.5" fill="#84BE84" rx="3" ry="3" style="stroke:#038048;stroke-width:1.0;"/><text fill="#000000" font-family="sans-serif" font-size="14" lengthAdjust="spacing" textLength="59" x="183.75" y="28.291">PlantBed</text><rect fill="#FFFFFF" height="16.1328" style="stroke:#181818;stroke-width:1.0;stroke-dasharray:2.0,2.0;" width="10" x="381" y="4"/><text fill="#000000" font-family="sans-serif" font-size="12" font-style="italic" lengthAdjust="spacing" textLength="8" x="382" y="16.6016">T</text><line style="stroke:#181818;stroke-width:0.5;" x1="8" x2="387" y1="39" y2="39"/><rect fill="none" height="6" style="stroke:#C82930;stroke-width:1.0;" width="6" x="15" y="49.7441"/><text fill="#000000" font-family="sans-serif" font-size="14" lengthAdjust="spacing" textLength="156" x="27" y="56.5352">plants: MagicalList&lt;T&gt;</text><line style="stroke:#181818;stroke-width:0.5;" x1="8" x2="387" y1="63.4883" y2="63.4883"/><ellipse cx="18" cy="77.2324" fill="#84BE84" rx="3" ry="3" style="stroke:#038048;stroke-width:1.0;"/><text fill="#000000" font-family="sans-serif" font-size="14" lengthAdjust="spacing" textLength="88" x="27" y="81.0234">add(plant: T)</text><ellipse cx="18" cy="93.7207" fill="#84BE84" rx="3" ry="3" style="stroke:#038048;stroke-width:1.0;"/><text fill="#000000" font-family="sans-serif" font-size="14" lengthAdjust="spacing" textLength="63" x="27" y="97.5117">size(): int</text><ellipse cx="18" cy="110.209" fill="#84BE84" rx="3" ry="3" style="stroke:#038048;stroke-width:1.0;"/><text fill="#000000" font-family="sans-serif" font-size="14" lengthAdjust="spacing" textLength="355" x="27" y="114">getPlantsByColor(color: PlantColor): MagicalList&lt;T&gt;</text><ellipse cx="18" cy="126.6973" fill="#84BE84" rx="3" ry="3" style="stroke:#038048;stroke-width:1.0;"/><text fill="#000000" font-family="sans-serif" font-size="14" lengthAdjust="spacing" textLength="187" x="27" y="130.4883">getPlants(): MagicalList&lt;T&gt;</text></g><!--SRC=[Kr1GKD1EpaaiBbO8o4dCAt5AJR49iLEevbA00jq2a72nbO9lOdfcScAEJsPn2L055ro1Tc9AYWPOaPL2Y2P2k3YpAbL3qqeXCwy48PYUMWAsfjYfqZa_9xz88nb4Ma7i1ejeOjY4gLa3kw9Q0000]--></g></svg>