<?xml version="1.0" encoding="us-ascii" standalone="no"?><svg xmlns="http://www.w3.org/2000/svg" xmlns:xlink="http://www.w3.org/1999/xlink" contentStyleType="text/css" height="599px" preserveAspectRatio="none" style="width:954px;height:599px;background:#FFFFFF;" version="1.1" viewBox="0 0 954 599" width="954px" zoomAndPan="magnify"><defs/><g><!--class Phoenix--><g id="elem_Phoenix"><rect codeLine="3" fill="#F1F1F1" height="377.7656" id="Phoenix" rx="2.5" ry="2.5" style="stroke:#181818;stroke-width:0.5;" width="158" x="7" y="214.44"/><ellipse cx="53.75" cy="230.44" fill="#ADD1B2" rx="11" ry="11" style="stroke:#181818;stroke-width:1.0;"/><path d="M56.7231,236.0831 Q56.1421,236.3819 55.5029,236.5313 Q54.8638,236.6807 54.1582,236.6807 Q51.6514,236.6807 50.3315,235.0289 Q49.0117,233.377 49.0117,230.2559 Q49.0117,227.1265 50.3315,225.4747 Q51.6514,223.8228 54.1582,223.8228 Q54.8638,223.8228 55.5112,223.9722 Q56.1587,224.1216 56.7231,224.4205 L56.7231,227.1431 Q56.0923,226.5621 55.4988,226.2923 Q54.9053,226.0225 54.2744,226.0225 Q52.9297,226.0225 52.2449,227.0892 Q51.5601,228.1558 51.5601,230.2559 Q51.5601,232.3477 52.2449,233.4144 Q52.9297,234.481 54.2744,234.481 Q54.9053,234.481 55.4988,234.2112 Q56.0923,233.9415 56.7231,233.3604 Z " fill="#000000"/><text fill="#000000" font-family="sans-serif" font-size="14" lengthAdjust="spacing" textLength="56" x="74.25" y="235.731">Phoenix</text><line style="stroke:#181818;stroke-width:0.5;" x1="8" x2="164" y1="246.44" y2="246.44"/><rect fill="none" height="6" style="stroke:#C82930;stroke-width:1.0;" width="6" x="15" y="257.1841"/><text fill="#000000" font-family="sans-serif" font-size="14" lengthAdjust="spacing" textLength="62" x="27" y="263.9752">sleep: int</text><rect fill="none" height="6" style="stroke:#C82930;stroke-width:1.0;" width="6" x="15" y="273.6724"/><text fill="#000000" font-family="sans-serif" font-size="14" lengthAdjust="spacing" textLength="69" x="27" y="280.4634">awake: int</text><rect fill="none" height="6" style="stroke:#C82930;stroke-width:1.0;" width="6" x="15" y="290.1607"/><text fill="#000000" font-family="sans-serif" font-size="14" lengthAdjust="spacing" textLength="52" x="27" y="296.9517">rest: int</text><text fill="#000000" font-family="sans-serif" font-size="14" lengthAdjust="spacing" textLength="4" x="27" y="313.44">&#160;</text><rect fill="none" height="6" style="stroke:#C82930;stroke-width:1.0;" width="6" x="15" y="323.1373"/><text fill="#000000" font-family="sans-serif" font-size="14" lengthAdjust="spacing" textLength="126" x="27" y="329.9283">currentState: State</text><text fill="#000000" font-family="sans-serif" font-size="14" lengthAdjust="spacing" textLength="4" x="27" y="346.4166">&#160;</text><rect fill="none" height="6" style="stroke:#C82930;stroke-width:1.0;" width="6" x="15" y="356.1138"/><text fill="#000000" font-family="sans-serif" font-size="14" lengthAdjust="spacing" textLength="87" x="27" y="362.9048">name: String</text><line style="stroke:#181818;stroke-width:0.5;" x1="8" x2="164" y1="369.858" y2="369.858"/><ellipse cx="18" cy="383.6021" fill="#84BE84" rx="3" ry="3" style="stroke:#038048;stroke-width:1.0;"/><text fill="#000000" font-family="sans-serif" font-size="14" lengthAdjust="spacing" textLength="59" x="27" y="387.3931">void fly()</text><ellipse cx="18" cy="400.0904" fill="#84BE84" rx="3" ry="3" style="stroke:#038048;stroke-width:1.0;"/><text fill="#000000" font-family="sans-serif" font-size="14" lengthAdjust="spacing" textLength="67" x="27" y="403.8814">void tick()</text><text fill="#000000" font-family="sans-serif" font-size="14" lengthAdjust="spacing" textLength="4" x="27" y="420.3697">&#160;</text><ellipse cx="18" cy="433.067" fill="#84BE84" rx="3" ry="3" style="stroke:#038048;stroke-width:1.0;"/><text fill="#000000" font-family="sans-serif" font-size="14" lengthAdjust="spacing" textLength="127" x="27" y="436.858">boolean isAsleep()</text><ellipse cx="18" cy="449.5552" fill="#84BE84" rx="3" ry="3" style="stroke:#038048;stroke-width:1.0;"/><text fill="#000000" font-family="sans-serif" font-size="14" lengthAdjust="spacing" textLength="126" x="27" y="453.3463">boolean isPlayful()</text><ellipse cx="18" cy="466.0435" fill="#84BE84" rx="3" ry="3" style="stroke:#038048;stroke-width:1.0;"/><text fill="#000000" font-family="sans-serif" font-size="14" lengthAdjust="spacing" textLength="122" x="27" y="469.8345">boolean isFlying()</text><ellipse cx="18" cy="482.5318" fill="#84BE84" rx="3" ry="3" style="stroke:#038048;stroke-width:1.0;"/><text fill="#000000" font-family="sans-serif" font-size="14" lengthAdjust="spacing" textLength="132" x="27" y="486.3228">boolean isResting()</text><ellipse cx="18" cy="499.0201" fill="#84BE84" rx="3" ry="3" style="stroke:#038048;stroke-width:1.0;"/><text fill="#000000" font-family="sans-serif" font-size="14" lengthAdjust="spacing" textLength="116" x="27" y="502.8111">boolean isDead()</text><text fill="#000000" font-family="sans-serif" font-size="14" lengthAdjust="spacing" textLength="4" x="27" y="519.2994">&#160;</text><ellipse cx="18" cy="531.9966" fill="#84BE84" rx="3" ry="3" style="stroke:#038048;stroke-width:1.0;"/><text fill="#000000" font-family="sans-serif" font-size="14" lengthAdjust="spacing" textLength="91" x="27" y="535.7877">int getSleep()</text><ellipse cx="18" cy="548.4849" fill="#84BE84" rx="3" ry="3" style="stroke:#038048;stroke-width:1.0;"/><text fill="#000000" font-family="sans-serif" font-size="14" lengthAdjust="spacing" textLength="83" x="27" y="552.2759">int getRest()</text><ellipse cx="18" cy="564.9732" fill="#84BE84" rx="3" ry="3" style="stroke:#038048;stroke-width:1.0;"/><text fill="#000000" font-family="sans-serif" font-size="14" lengthAdjust="spacing" textLength="99" x="27" y="568.7642">int getAwake()</text><ellipse cx="18" cy="581.4615" fill="#84BE84" rx="3" ry="3" style="stroke:#038048;stroke-width:1.0;"/><text fill="#000000" font-family="sans-serif" font-size="14" lengthAdjust="spacing" textLength="116" x="27" y="585.2525">String getName()</text></g><!--class State--><g id="elem_State"><rect codeLine="27" fill="#F1F1F1" height="130.4414" id="State" rx="2.5" ry="2.5" style="stroke:#181818;stroke-width:0.5;" width="307" x="354.5" y="7"/><ellipse cx="486.75" cy="23" fill="#A9DCDF" rx="11" ry="11" style="stroke:#181818;stroke-width:1.0;"/><path d="M486.8633,18.3481 L485.7095,23.4199 L488.0254,23.4199 Z M485.3691,16.1069 L488.3657,16.1069 L491.7109,28.5 L489.2622,28.5 L488.4985,25.437 L485.2197,25.437 L484.4727,28.5 L482.0239,28.5 Z " fill="#000000"/><text fill="#000000" font-family="sans-serif" font-size="14" font-style="italic" lengthAdjust="spacing" textLength="34" x="507.25" y="28.291">State</text><line style="stroke:#181818;stroke-width:0.5;" x1="355.5" x2="660.5" y1="39" y2="39"/><polygon fill="none" points="365.5,47.7441,369.5,51.7441,365.5,55.7441,361.5,51.7441" style="stroke:#B38D22;stroke-width:1.0;"/><text fill="#000000" font-family="sans-serif" font-size="14" lengthAdjust="spacing" text-decoration="underline" textLength="101" x="374.5" y="56.5352">logger: Logger</text><polygon fill="none" points="365.5,64.2324,369.5,68.2324,365.5,72.2324,361.5,68.2324" style="stroke:#B38D22;stroke-width:1.0;"/><text fill="#000000" font-family="sans-serif" font-size="14" lengthAdjust="spacing" textLength="31" x="374.5" y="73.0234">t: int</text><polygon fill="none" points="365.5,80.7207,369.5,84.7207,365.5,88.7207,361.5,84.7207" style="stroke:#B38D22;stroke-width:1.0;"/><text fill="#000000" font-family="sans-serif" font-size="14" lengthAdjust="spacing" textLength="85" x="374.5" y="89.5117">duration: int</text><line style="stroke:#181818;stroke-width:0.5;" x1="355.5" x2="660.5" y1="96.4648" y2="96.4648"/><text fill="#000000" font-family="sans-serif" font-size="14" lengthAdjust="spacing" textLength="193" x="360.5" y="114">State tick(phoenix: Phoenix)</text><text fill="#000000" font-family="sans-serif" font-size="14" lengthAdjust="spacing" textLength="295" x="360.5" y="130.4883">abstract State successor(phoenix: Phoenix)</text></g><!--class RestingState--><g id="elem_RestingState"><rect codeLine="35" fill="#F1F1F1" height="48" id="RestingState" rx="2.5" ry="2.5" style="stroke:#181818;stroke-width:0.5;" width="117" x="199.5" y="379.33"/><ellipse cx="214.5" cy="395.33" fill="#ADD1B2" rx="11" ry="11" style="stroke:#181818;stroke-width:1.0;"/><path d="M217.4731,400.9731 Q216.8921,401.2719 216.2529,401.4213 Q215.6138,401.5707 214.9082,401.5707 Q212.4014,401.5707 211.0815,399.9189 Q209.7617,398.267 209.7617,395.1459 Q209.7617,392.0165 211.0815,390.3647 Q212.4014,388.7128 214.9082,388.7128 Q215.6138,388.7128 216.2612,388.8622 Q216.9087,389.0116 217.4731,389.3105 L217.4731,392.0331 Q216.8423,391.4521 216.2488,391.1823 Q215.6553,390.9125 215.0244,390.9125 Q213.6797,390.9125 212.9949,391.9792 Q212.3101,393.0458 212.3101,395.1459 Q212.3101,397.2377 212.9949,398.3044 Q213.6797,399.371 215.0244,399.371 Q215.6553,399.371 216.2488,399.1012 Q216.8423,398.8315 217.4731,398.2504 Z " fill="#000000"/><text fill="#000000" font-family="sans-serif" font-size="14" lengthAdjust="spacing" textLength="85" x="228.5" y="400.621">RestingState</text><line style="stroke:#181818;stroke-width:0.5;" x1="200.5" x2="315.5" y1="411.33" y2="411.33"/><line style="stroke:#181818;stroke-width:0.5;" x1="200.5" x2="315.5" y1="419.33" y2="419.33"/></g><!--class FlyingState--><g id="elem_FlyingState"><rect codeLine="38" fill="#F1F1F1" height="64.4883" id="FlyingState" rx="2.5" ry="2.5" style="stroke:#181818;stroke-width:0.5;" width="149" x="351.5" y="371.08"/><ellipse cx="385.4" cy="387.08" fill="#ADD1B2" rx="11" ry="11" style="stroke:#181818;stroke-width:1.0;"/><path d="M388.3731,392.7231 Q387.7921,393.0219 387.1529,393.1713 Q386.5138,393.3207 385.8082,393.3207 Q383.3014,393.3207 381.9815,391.6689 Q380.6617,390.017 380.6617,386.8959 Q380.6617,383.7665 381.9815,382.1147 Q383.3014,380.4628 385.8082,380.4628 Q386.5138,380.4628 387.1612,380.6122 Q387.8087,380.7616 388.3731,381.0605 L388.3731,383.7831 Q387.7423,383.2021 387.1488,382.9323 Q386.5553,382.6625 385.9244,382.6625 Q384.5797,382.6625 383.8949,383.7292 Q383.2101,384.7958 383.2101,386.8959 Q383.2101,388.9877 383.8949,390.0544 Q384.5797,391.121 385.9244,391.121 Q386.5553,391.121 387.1488,390.8512 Q387.7423,390.5815 388.3731,390.0004 Z " fill="#000000"/><text fill="#000000" font-family="sans-serif" font-size="14" lengthAdjust="spacing" textLength="75" x="403.6" y="392.371">FlyingState</text><line style="stroke:#181818;stroke-width:0.5;" x1="352.5" x2="499.5" y1="403.08" y2="403.08"/><line style="stroke:#181818;stroke-width:0.5;" x1="352.5" x2="499.5" y1="411.08" y2="411.08"/><text fill="#000000" font-family="sans-serif" font-size="14" lengthAdjust="spacing" textLength="137" x="357.5" y="428.6152">State fly(p: Phoenix)</text></g><!--class PlayfulState--><g id="elem_PlayfulState"><rect codeLine="42" fill="#F1F1F1" height="48" id="PlayfulState" rx="2.5" ry="2.5" style="stroke:#181818;stroke-width:0.5;" width="111" x="535.5" y="379.33"/><ellipse cx="550.5" cy="395.33" fill="#ADD1B2" rx="11" ry="11" style="stroke:#181818;stroke-width:1.0;"/><path d="M553.4731,400.9731 Q552.8921,401.2719 552.2529,401.4213 Q551.6138,401.5707 550.9082,401.5707 Q548.4014,401.5707 547.0815,399.9189 Q545.7617,398.267 545.7617,395.1459 Q545.7617,392.0165 547.0815,390.3647 Q548.4014,388.7128 550.9082,388.7128 Q551.6138,388.7128 552.2612,388.8622 Q552.9087,389.0116 553.4731,389.3105 L553.4731,392.0331 Q552.8423,391.4521 552.2488,391.1823 Q551.6553,390.9125 551.0244,390.9125 Q549.6797,390.9125 548.9949,391.9792 Q548.3101,393.0458 548.3101,395.1459 Q548.3101,397.2377 548.9949,398.3044 Q549.6797,399.371 551.0244,399.371 Q551.6553,399.371 552.2488,399.1012 Q552.8423,398.8315 553.4731,398.2504 Z " fill="#000000"/><text fill="#000000" font-family="sans-serif" font-size="14" lengthAdjust="spacing" textLength="79" x="564.5" y="400.621">PlayfulState</text><line style="stroke:#181818;stroke-width:0.5;" x1="536.5" x2="645.5" y1="411.33" y2="411.33"/><line style="stroke:#181818;stroke-width:0.5;" x1="536.5" x2="645.5" y1="419.33" y2="419.33"/></g><!--class SleepingState--><g id="elem_SleepingState"><rect codeLine="45" fill="#F1F1F1" height="48" id="SleepingState" rx="2.5" ry="2.5" style="stroke:#181818;stroke-width:0.5;" width="125" x="681.5" y="379.33"/><ellipse cx="696.5" cy="395.33" fill="#ADD1B2" rx="11" ry="11" style="stroke:#181818;stroke-width:1.0;"/><path d="M699.4731,400.9731 Q698.8921,401.2719 698.2529,401.4213 Q697.6138,401.5707 696.9082,401.5707 Q694.4014,401.5707 693.0815,399.9189 Q691.7617,398.267 691.7617,395.1459 Q691.7617,392.0165 693.0815,390.3647 Q694.4014,388.7128 696.9082,388.7128 Q697.6138,388.7128 698.2612,388.8622 Q698.9087,389.0116 699.4731,389.3105 L699.4731,392.0331 Q698.8423,391.4521 698.2488,391.1823 Q697.6553,390.9125 697.0244,390.9125 Q695.6797,390.9125 694.9949,391.9792 Q694.3101,393.0458 694.3101,395.1459 Q694.3101,397.2377 694.9949,398.3044 Q695.6797,399.371 697.0244,399.371 Q697.6553,399.371 698.2488,399.1012 Q698.8423,398.8315 699.4731,398.2504 Z " fill="#000000"/><text fill="#000000" font-family="sans-serif" font-size="14" lengthAdjust="spacing" textLength="93" x="710.5" y="400.621">SleepingState</text><line style="stroke:#181818;stroke-width:0.5;" x1="682.5" x2="805.5" y1="411.33" y2="411.33"/><line style="stroke:#181818;stroke-width:0.5;" x1="682.5" x2="805.5" y1="419.33" y2="419.33"/></g><!--class DeathState--><g id="elem_DeathState"><rect codeLine="48" fill="#F1F1F1" height="48" id="DeathState" rx="2.5" ry="2.5" style="stroke:#181818;stroke-width:0.5;" width="106" x="841" y="379.33"/><ellipse cx="856" cy="395.33" fill="#ADD1B2" rx="11" ry="11" style="stroke:#181818;stroke-width:1.0;"/><path d="M858.9731,400.9731 Q858.3921,401.2719 857.7529,401.4213 Q857.1138,401.5707 856.4082,401.5707 Q853.9014,401.5707 852.5815,399.9189 Q851.2617,398.267 851.2617,395.1459 Q851.2617,392.0165 852.5815,390.3647 Q853.9014,388.7128 856.4082,388.7128 Q857.1138,388.7128 857.7612,388.8622 Q858.4087,389.0116 858.9731,389.3105 L858.9731,392.0331 Q858.3423,391.4521 857.7488,391.1823 Q857.1553,390.9125 856.5244,390.9125 Q855.1797,390.9125 854.4949,391.9792 Q853.8101,393.0458 853.8101,395.1459 Q853.8101,397.2377 854.4949,398.3044 Q855.1797,399.371 856.5244,399.371 Q857.1553,399.371 857.7488,399.1012 Q858.3423,398.8315 858.9731,398.2504 Z " fill="#000000"/><text fill="#000000" font-family="sans-serif" font-size="14" lengthAdjust="spacing" textLength="74" x="870" y="400.621">DeathState</text><line style="stroke:#181818;stroke-width:0.5;" x1="842" x2="946" y1="411.33" y2="411.33"/><line style="stroke:#181818;stroke-width:0.5;" x1="842" x2="946" y1="419.33" y2="419.33"/></g><!--reverse link State to RestingState--><g id="link_State_RestingState"><path d="M396.9036,148.9408 C369.3236,170.8008 355.17,185.82 334,214.44 C295.3,266.78 272.84,341.6 263.36,379.07 " fill="none" id="State-backto-RestingState" style="stroke:#181818;stroke-width:1.0;"/><polygon fill="none" points="411.01,137.76,393.1767,144.2386,400.6305,153.6429,411.01,137.76" style="stroke:#181818;stroke-width:1.0;"/></g><!--reverse link State to FlyingState--><g id="link_State_FlyingState"><path d="M487.5484,155.3161 C470.0584,225.5161 447.19,317.29 433.87,370.73 " fill="none" id="State-backto-FlyingState" style="stroke:#181818;stroke-width:1.0;"/><polygon fill="none" points="491.9,137.85,481.7264,153.8655,493.3704,156.7666,491.9,137.85" style="stroke:#181818;stroke-width:1.0;"/></g><!--reverse link State to PlayfulState--><g id="link_State_PlayfulState"><path d="M528.7005,155.3038 C547.3905,229.4338 572.67,329.65 585.16,379.17 " fill="none" id="State-backto-PlayfulState" style="stroke:#181818;stroke-width:1.0;"/><polygon fill="none" points="524.3,137.85,522.8826,156.7706,534.5185,153.837,524.3,137.85" style="stroke:#181818;stroke-width:1.0;"/></g><!--reverse link State to SleepingState--><g id="link_State_SleepingState"><path d="M605.9326,149.5915 C631.2726,171.8915 644.08,186.47 664,214.44 C701.94,267.72 726.75,341.8 737.64,379.01 " fill="none" id="State-backto-SleepingState" style="stroke:#181818;stroke-width:1.0;"/><polygon fill="none" points="592.42,137.7,601.9688,154.0958,609.8965,145.0873,592.42,137.7" style="stroke:#181818;stroke-width:1.0;"/></g><!--reverse link State to DeathState--><g id="link_State_DeathState"><path d="M678.6714,120.5762 C735.8614,142.3562 780.52,168.1 824,214.44 C868.54,261.91 885.36,340.28 891.19,379.08 " fill="none" id="State-backto-DeathState" style="stroke:#181818;stroke-width:1.0;"/><polygon fill="none" points="661.85,114.17,676.536,126.1833,680.8068,114.9691,661.85,114.17" style="stroke:#181818;stroke-width:1.0;"/></g><!--link State to Phoenix--><g id="link_State_Phoenix"><path codeLine="51" d="M354.13,112.81 C294.24,134.61 228.89,167.13 182,214.44 C176.2,220.3 178.1454,217.1829 172.9054,223.7629 " fill="none" id="State-to-Phoenix" style="stroke:#181818;stroke-width:1.0;"/><polygon fill="#181818" points="165.43,233.15,172.2968,230.9483,172.9054,223.7629,166.0387,225.9646,165.43,233.15" style="stroke:#181818;stroke-width:1.0;"/><text fill="#000000" font-family="sans-serif" font-size="13" lengthAdjust="spacing" textLength="80" x="235" y="181.0084">current state</text></g><!--SRC=[XL99RiCm33nNho3WGpVu0xu5A7egWg1vWIBJjX1LCYIwZH7uxzNY3OsB-629mv58pkXHOKL01goi6u9IMXGaZMPCAEuS71g3MbxWoXvofn3R0gGc1lxB-Gy_uogsw2Y5AHQTjQZfI9myBIvZHlElY5YfwuZ4t-ktaILKgdzwNiKanTa32JaPev1ha6uNkvcO2tvGlAywTPjuLxslTej_-gut4s_8oxcmdmfgfEEww8Y52_v0kw3CXAKn0xptOtjqO8oV75ak29BAKPkWSNPrVYl5e4nTeotW8wxneemMhREoippuj43fZgXMcqmh9lTI8tFDn7IT4EYSiHlqOR9_52UTm0kXBfTkPrQITfkqj1QCRRUAZ9RTAHAblz-BTusQVpbfc-SlyyCkO7ocuE83_GK0]--></g></svg>