<?xml version="1.0" encoding="us-ascii" standalone="no"?><svg xmlns="http://www.w3.org/2000/svg" xmlns:xlink="http://www.w3.org/1999/xlink" contentStyleType="text/css" height="444px" preserveAspectRatio="none" style="width:896px;height:444px;background:#FFFFFF;" version="1.1" viewBox="0 0 896 444" width="896px" zoomAndPan="magnify"><defs/><g><!--class SimpleFilter--><g id="elem_SimpleFilter"><rect codeLine="1" fill="#F1F1F1" height="64.4883" id="SimpleFilter" rx="2.5" ry="2.5" style="stroke:#181818;stroke-width:0.5;" width="224" x="30.5" y="15.24"/><ellipse cx="97.75" cy="31.24" fill="#B4A7E5" rx="11" ry="11" style="stroke:#181818;stroke-width:1.0;"/><path d="M93.6777,27.0051 L93.6777,24.8469 L101.0571,24.8469 L101.0571,27.0051 L98.5918,27.0051 L98.5918,35.0818 L101.0571,35.0818 L101.0571,37.24 L93.6777,37.24 L93.6777,35.0818 L96.1431,35.0818 L96.1431,27.0051 Z " fill="#000000"/><text fill="#000000" font-family="sans-serif" font-size="14" font-style="italic" lengthAdjust="spacing" textLength="81" x="118.25" y="36.531">SimpleFilter</text><line style="stroke:#181818;stroke-width:0.5;" x1="31.5" x2="253.5" y1="47.24" y2="47.24"/><line style="stroke:#181818;stroke-width:0.5;" x1="31.5" x2="253.5" y1="55.24" y2="55.24"/><ellipse cx="41.5" cy="68.9841" fill="#84BE84" rx="3" ry="3" style="stroke:#038048;stroke-width:1.0;"/><text fill="#000000" font-family="sans-serif" font-size="14" lengthAdjust="spacing" textLength="198" x="50.5" y="72.7752">boolean include(Object item)</text></g><!--class Iterable--><g id="elem_Iterable"><rect codeLine="5" fill="#F1F1F1" height="64.4883" id="Iterable" rx="2.5" ry="2.5" style="stroke:#181818;stroke-width:0.5;" width="142" x="312.5" y="165.46"/><ellipse cx="353.6" cy="181.46" fill="#B4A7E5" rx="11" ry="11" style="stroke:#181818;stroke-width:1.0;"/><path d="M349.5277,177.2251 L349.5277,175.0669 L356.9071,175.0669 L356.9071,177.2251 L354.4418,177.2251 L354.4418,185.3018 L356.9071,185.3018 L356.9071,187.46 L349.5277,187.46 L349.5277,185.3018 L351.9931,185.3018 L351.9931,177.2251 Z " fill="#000000"/><text fill="#000000" font-family="sans-serif" font-size="14" font-style="italic" lengthAdjust="spacing" textLength="52" x="373.4" y="186.751">Iterable</text><line style="stroke:#181818;stroke-width:0.5;" x1="313.5" x2="453.5" y1="197.46" y2="197.46"/><line style="stroke:#181818;stroke-width:0.5;" x1="313.5" x2="453.5" y1="205.46" y2="205.46"/><ellipse cx="323.5" cy="219.2041" fill="#84BE84" rx="3" ry="3" style="stroke:#038048;stroke-width:1.0;"/><text fill="#000000" font-family="sans-serif" font-size="14" lengthAdjust="spacing" textLength="116" x="332.5" y="222.9952">Iterator iterator()</text></g><!--class Iterator--><g id="elem_Iterator"><rect codeLine="9" fill="#F1F1F1" height="80.9766" id="Iterator" rx="2.5" ry="2.5" style="stroke:#181818;stroke-width:0.5;" width="152" x="498.5" y="7"/><ellipse cx="544.75" cy="23" fill="#B4A7E5" rx="11" ry="11" style="stroke:#181818;stroke-width:1.0;"/><path d="M540.6777,18.7651 L540.6777,16.6069 L548.0571,16.6069 L548.0571,18.7651 L545.5918,18.7651 L545.5918,26.8418 L548.0571,26.8418 L548.0571,29 L540.6777,29 L540.6777,26.8418 L543.1431,26.8418 L543.1431,18.7651 Z " fill="#000000"/><text fill="#000000" font-family="sans-serif" font-size="14" font-style="italic" lengthAdjust="spacing" textLength="51" x="565.25" y="28.291">Iterator</text><line style="stroke:#181818;stroke-width:0.5;" x1="499.5" x2="649.5" y1="39" y2="39"/><line style="stroke:#181818;stroke-width:0.5;" x1="499.5" x2="649.5" y1="47" y2="47"/><ellipse cx="509.5" cy="60.7441" fill="#84BE84" rx="3" ry="3" style="stroke:#038048;stroke-width:1.0;"/><text fill="#000000" font-family="sans-serif" font-size="14" lengthAdjust="spacing" textLength="126" x="518.5" y="64.5352">boolean hasNext()</text><ellipse cx="509.5" cy="77.2324" fill="#84BE84" rx="3" ry="3" style="stroke:#038048;stroke-width:1.0;"/><text fill="#000000" font-family="sans-serif" font-size="14" lengthAdjust="spacing" textLength="89" x="518.5" y="81.0234">Object next()</text></g><!--class MagicalList--><g id="elem_MagicalList"><rect codeLine="14" fill="#F1F1F1" height="97.4648" id="MagicalList" rx="2.5" ry="2.5" style="stroke:#181818;stroke-width:0.5;" width="271" x="7" y="148.97"/><ellipse cx="100.75" cy="164.97" fill="#B4A7E5" rx="11" ry="11" style="stroke:#181818;stroke-width:1.0;"/><path d="M96.6777,160.7351 L96.6777,158.5769 L104.0571,158.5769 L104.0571,160.7351 L101.5918,160.7351 L101.5918,168.8118 L104.0571,168.8118 L104.0571,170.97 L96.6777,170.97 L96.6777,168.8118 L99.1431,168.8118 L99.1431,160.7351 Z " fill="#000000"/><text fill="#000000" font-family="sans-serif" font-size="14" font-style="italic" lengthAdjust="spacing" textLength="75" x="121.25" y="170.261">MagicalList</text><line style="stroke:#181818;stroke-width:0.5;" x1="8" x2="277" y1="180.97" y2="180.97"/><line style="stroke:#181818;stroke-width:0.5;" x1="8" x2="277" y1="188.97" y2="188.97"/><ellipse cx="18" cy="202.7141" fill="#84BE84" rx="3" ry="3" style="stroke:#038048;stroke-width:1.0;"/><text fill="#000000" font-family="sans-serif" font-size="14" lengthAdjust="spacing" textLength="147" x="27" y="206.5052">void add(Object item)</text><ellipse cx="18" cy="219.2024" fill="#84BE84" rx="3" ry="3" style="stroke:#038048;stroke-width:1.0;"/><text fill="#000000" font-family="sans-serif" font-size="14" lengthAdjust="spacing" textLength="59" x="27" y="222.9934">int size()</text><ellipse cx="18" cy="235.6907" fill="#84BE84" rx="3" ry="3" style="stroke:#038048;stroke-width:1.0;"/><text fill="#000000" font-family="sans-serif" font-size="14" lengthAdjust="spacing" textLength="245" x="27" y="239.4817">MagicalList filter(SimpleFilter filter)_</text></g><!--class MagicalListImpl--><g id="elem_MagicalListImpl"><rect codeLine="20" fill="#F1F1F1" height="113.9531" id="MagicalListImpl" rx="2.5" ry="2.5" style="stroke:#181818;stroke-width:0.5;" width="264" x="442.5" y="323.44"/><ellipse cx="517.75" cy="339.44" fill="#ADD1B2" rx="11" ry="11" style="stroke:#181818;stroke-width:1.0;"/><path d="M520.7231,345.0831 Q520.1421,345.3819 519.5029,345.5313 Q518.8638,345.6807 518.1582,345.6807 Q515.6514,345.6807 514.3315,344.0289 Q513.0117,342.377 513.0117,339.2559 Q513.0117,336.1265 514.3315,334.4747 Q515.6514,332.8228 518.1582,332.8228 Q518.8638,332.8228 519.5112,332.9722 Q520.1587,333.1216 520.7231,333.4205 L520.7231,336.1431 Q520.0923,335.5621 519.4988,335.2923 Q518.9053,335.0225 518.2744,335.0225 Q516.9297,335.0225 516.2449,336.0892 Q515.5601,337.1558 515.5601,339.2559 Q515.5601,341.3477 516.2449,342.4144 Q516.9297,343.481 518.2744,343.481 Q518.9053,343.481 519.4988,343.2112 Q520.0923,342.9415 520.7231,342.3604 Z " fill="#000000"/><text fill="#000000" font-family="sans-serif" font-size="14" lengthAdjust="spacing" textLength="105" x="538.25" y="344.731">MagicalListImpl</text><line style="stroke:#181818;stroke-width:0.5;" x1="443.5" x2="705.5" y1="355.44" y2="355.44"/><rect fill="none" height="6" style="stroke:#C82930;stroke-width:1.0;" width="6" x="450.5" y="366.1841"/><text fill="#000000" font-family="sans-serif" font-size="14" lengthAdjust="spacing" textLength="101" x="462.5" y="372.9752">head : Element</text><line style="stroke:#181818;stroke-width:0.5;" x1="443.5" x2="705.5" y1="379.9283" y2="379.9283"/><ellipse cx="453.5" cy="393.6724" fill="#84BE84" rx="3" ry="3" style="stroke:#038048;stroke-width:1.0;"/><text fill="#000000" font-family="sans-serif" font-size="14" lengthAdjust="spacing" textLength="147" x="462.5" y="397.4634">void add(Object item)</text><ellipse cx="453.5" cy="410.1607" fill="#84BE84" rx="3" ry="3" style="stroke:#038048;stroke-width:1.0;"/><text fill="#000000" font-family="sans-serif" font-size="14" lengthAdjust="spacing" textLength="59" x="462.5" y="413.9517">int size()</text><ellipse cx="453.5" cy="426.649" fill="#84BE84" rx="3" ry="3" style="stroke:#038048;stroke-width:1.0;"/><text fill="#000000" font-family="sans-serif" font-size="14" lengthAdjust="spacing" textLength="238" x="462.5" y="430.44">MagicalList filter(SimpleFilter filter)</text></g><!--class SimpleIteratorImpl--><g id="elem_SimpleIteratorImpl"><rect codeLine="27" fill="#F1F1F1" height="48" id="SimpleIteratorImpl" rx="2.5" ry="2.5" style="stroke:#181818;stroke-width:0.5;" width="170" x="489.5" y="173.7"/><ellipse cx="504.5" cy="189.7" fill="#ADD1B2" rx="11" ry="11" style="stroke:#181818;stroke-width:1.0;"/><path d="M507.4731,195.3431 Q506.8921,195.6419 506.2529,195.7913 Q505.6138,195.9407 504.9082,195.9407 Q502.4014,195.9407 501.0815,194.2889 Q499.7617,192.637 499.7617,189.5159 Q499.7617,186.3865 501.0815,184.7347 Q502.4014,183.0828 504.9082,183.0828 Q505.6138,183.0828 506.2612,183.2322 Q506.9087,183.3816 507.4731,183.6805 L507.4731,186.4031 Q506.8423,185.8221 506.2488,185.5523 Q505.6553,185.2825 505.0244,185.2825 Q503.6797,185.2825 502.9949,186.3492 Q502.3101,187.4158 502.3101,189.5159 Q502.3101,191.6077 502.9949,192.6744 Q503.6797,193.741 505.0244,193.741 Q505.6553,193.741 506.2488,193.4712 Q506.8423,193.2015 507.4731,192.6204 Z " fill="#000000"/><rect fill="#F24D5C" height="6" style="stroke:#C82930;stroke-width:1.0;" width="6" x="520.5" y="186.2"/><text fill="#000000" font-family="sans-serif" font-size="14" lengthAdjust="spacing" textLength="127" x="529.5" y="194.991">SimpleIteratorImpl</text><line style="stroke:#181818;stroke-width:0.5;" x1="490.5" x2="658.5" y1="205.7" y2="205.7"/><line style="stroke:#181818;stroke-width:0.5;" x1="490.5" x2="658.5" y1="213.7" y2="213.7"/></g><!--class Element--><g id="elem_Element"><rect codeLine="30" fill="#F1F1F1" height="80.9766" id="Element" rx="2.5" ry="2.5" style="stroke:#181818;stroke-width:0.5;" width="120" x="694.5" y="157.22"/><ellipse cx="719.4" cy="173.22" fill="#ADD1B2" rx="11" ry="11" style="stroke:#181818;stroke-width:1.0;"/><path d="M722.3731,178.8631 Q721.7921,179.1619 721.1529,179.3113 Q720.5138,179.4607 719.8082,179.4607 Q717.3014,179.4607 715.9815,177.8089 Q714.6617,176.157 714.6617,173.0359 Q714.6617,169.9065 715.9815,168.2547 Q717.3014,166.6028 719.8082,166.6028 Q720.5138,166.6028 721.1612,166.7522 Q721.8087,166.9016 722.3731,167.2005 L722.3731,169.9231 Q721.7423,169.3421 721.1488,169.0723 Q720.5553,168.8025 719.9244,168.8025 Q718.5797,168.8025 717.8949,169.8692 Q717.2101,170.9358 717.2101,173.0359 Q717.2101,175.1277 717.8949,176.1944 Q718.5797,177.261 719.9244,177.261 Q720.5553,177.261 721.1488,176.9912 Q721.7423,176.7215 722.3731,176.1404 Z " fill="#000000"/><rect fill="#F24D5C" height="6" style="stroke:#C82930;stroke-width:1.0;" width="6" x="737.6" y="169.72"/><text fill="#000000" font-family="sans-serif" font-size="14" lengthAdjust="spacing" textLength="55" x="746.6" y="178.511">Element</text><line style="stroke:#181818;stroke-width:0.5;" x1="695.5" x2="813.5" y1="189.22" y2="189.22"/><rect fill="none" height="6" style="stroke:#C82930;stroke-width:1.0;" width="6" x="702.5" y="199.9641"/><text fill="#000000" font-family="sans-serif" font-size="14" lengthAdjust="spacing" textLength="82" x="714.5" y="206.7552">item: Object</text><rect fill="none" height="6" style="stroke:#C82930;stroke-width:1.0;" width="6" x="702.5" y="216.4524"/><text fill="#000000" font-family="sans-serif" font-size="14" lengthAdjust="spacing" textLength="94" x="714.5" y="223.2434">next: Element</text><line style="stroke:#181818;stroke-width:0.5;" x1="695.5" x2="813.5" y1="230.1966" y2="230.1966"/></g><!--reverse link MagicalList to MagicalListImpl--><g id="link_MagicalList_MagicalListImpl"><path d="M274.3051,253.8376 C331.0451,277.5776 383.14,299.37 442.04,324 " fill="none" id="MagicalList-backto-MagicalListImpl" style="stroke:#181818;stroke-width:1.0;stroke-dasharray:7.0,7.0;"/><polygon fill="none" points="257.7,246.89,271.9893,259.3726,276.621,248.3025,257.7,246.89" style="stroke:#181818;stroke-width:1.0;"/></g><!--reverse link Iterable to MagicalListImpl--><g id="link_Iterable_MagicalListImpl"><path d="M429.8436,242.5526 C456.8836,268.1426 482.64,292.5 515.01,323.13 " fill="none" id="Iterable-backto-MagicalListImpl" style="stroke:#181818;stroke-width:1.0;stroke-dasharray:7.0,7.0;"/><polygon fill="none" points="416.77,230.18,425.7194,246.9104,433.9678,238.1947,416.77,230.18" style="stroke:#181818;stroke-width:1.0;"/></g><!--reverse link Iterator to SimpleIteratorImpl--><g id="link_Iterator_SimpleIteratorImpl"><path d="M574.5,106.2 C574.5,133.47 574.5,150.72 574.5,173.52 " fill="none" id="Iterator-backto-SimpleIteratorImpl" style="stroke:#181818;stroke-width:1.0;stroke-dasharray:7.0,7.0;"/><polygon fill="none" points="574.5,88.2,568.5,106.2,580.5,106.2,574.5,88.2" style="stroke:#181818;stroke-width:1.0;"/></g><!--link Element to MagicalListImpl--><g id="link_Element_MagicalListImpl"><path codeLine="35" d="M715,238.36 C690.26,263.19 666.4798,287.0793 639.1098,314.5493 " fill="none" id="Element-to-MagicalListImpl" style="stroke:#181818;stroke-width:1.0;"/><polygon fill="#181818" points="630.64,323.05,637.7085,321.6229,639.1098,314.5493,632.0413,315.9764,630.64,323.05" style="stroke:#181818;stroke-width:1.0;"/><text fill="#000000" font-family="sans-serif" font-size="13" lengthAdjust="spacing" textLength="30" x="676.5" y="290.0084">head</text></g><!--link Element to MagicalListImpl--><g id="link_Element_MagicalListImpl"><path codeLine="37" d="M744.29,238.64 C738.16,256.83 728.9,277.75 715.5,293.44 C706.19,304.34 707.893,304.5977 696.133,313.5077 " fill="none" id="Element-to-MagicalListImpl-1" style="stroke:#181818;stroke-width:1.0;"/><ellipse cx="689.7565" cy="318.3388" fill="#FFFFFF" rx="8" ry="8" style="stroke:#181818;stroke-width:1.0;"/><line style="stroke:#181818;stroke-width:1.0;" x1="696.133" x2="683.38" y1="313.5077" y2="323.17"/><line style="stroke:#181818;stroke-width:1.0;" x1="694.5877" x2="684.9253" y1="324.7153" y2="311.9623"/></g><!--link Element to Element--><g id="link_Element_Element"><path codeLine="36" d="M814.8,182.85 C834.16,183 849.5,187.96 849.5,197.7 C849.5,207.45 846.1596,212.3008 826.7996,212.4608 " fill="none" id="Element-to-Element" style="stroke:#181818;stroke-width:1.0;"/><polygon fill="#181818" points="814.8,212.56,820.8329,216.5103,826.7996,212.4608,820.7667,208.5106,814.8,212.56" style="stroke:#181818;stroke-width:1.0;"/><text fill="#000000" font-family="sans-serif" font-size="13" lengthAdjust="spacing" textLength="28" x="855.5" y="202.7684">next</text></g><!--reverse link SimpleFilter to MagicalList--><g id="link_SimpleFilter_MagicalList"><path codeLine="38" d="M142.5,85.92 C142.5,105.89 142.5,126.13 142.5,148.68 " fill="none" id="SimpleFilter-backto-MagicalList" style="stroke:#181818;stroke-width:1.0;stroke-dasharray:7.0,7.0;"/><polygon fill="#181818" points="142.5,79.92,138.5,88.92,142.5,84.92,146.5,88.92,142.5,79.92" style="stroke:#181818;stroke-width:1.0;"/></g><!--link SimpleIteratorImpl to MagicalListImpl--><g id="link_SimpleIteratorImpl_MagicalListImpl"><path codeLine="39" d="M574.5,221.96 C574.5,247.41 574.5,273.14 574.5,307.24 " fill="none" id="SimpleIteratorImpl-to-MagicalListImpl" style="stroke:#181818;stroke-width:1.0;"/><ellipse cx="574.5" cy="315.24" fill="#FFFFFF" rx="8" ry="8" style="stroke:#181818;stroke-width:1.0;"/><line style="stroke:#181818;stroke-width:1.0;" x1="574.5" x2="574.5" y1="307.24" y2="323.24"/><line style="stroke:#181818;stroke-width:1.0;" x1="582.5" x2="566.5" y1="315.24" y2="315.24"/></g><!--SRC=[jL71JiCm33sJh_2nesGVK745QTA00n-0qiHZHccAbe0GY7ydSLPMirxfoRNVizzxeP3mi3CMuP66Lu-tv7C3ljH5su-ZHnE0WlLl3fk7_WLj0aeuhDItKlHBtUJ2z1wPnZzfF1GW5yqIkW3cH_OctkD7obZ8Ntky5MfBqE7EF9CrVainvHKCVn_9WN5EQkHH9aAaJvms2_gEtJR2UksjdifLwqsCuk8c8u7X0uOaPrSY2Br7uw23cmhDNlz1PH6fgyewdiBzgtCM-ebobCPgYvWEgZBMe4lu9_cPDS6rlZpFf8FYLs2ckkDtd8tQCxeIvgxNQu5G2zwMjlm0]--></g></svg>