<?xml version="1.0" encoding="us-ascii" standalone="no"?><svg xmlns="http://www.w3.org/2000/svg" xmlns:xlink="http://www.w3.org/1999/xlink" contentStyleType="text/css" height="118px" preserveAspectRatio="none" style="width:710px;height:118px;background:#FFFFFF;" version="1.1" viewBox="0 0 710 118" width="710px" zoomAndPan="magnify"><defs/><g><!--class PlantBedUtility--><g id="elem_PlantBedUtility"><rect codeLine="1" fill="#F1F1F1" height="97.4648" id="PlantBedUtility" rx="2.5" ry="2.5" style="stroke:#181818;stroke-width:0.5;" width="689" x="7" y="7"/><ellipse cx="292.75" cy="23" fill="#A9DCDF" rx="11" ry="11" style="stroke:#181818;stroke-width:1.0;"/><path d="M292.8633,18.3481 L291.7095,23.4199 L294.0254,23.4199 Z M291.3691,16.1069 L294.3657,16.1069 L297.7109,28.5 L295.2622,28.5 L294.4985,25.437 L291.2197,25.437 L290.4727,28.5 L288.0239,28.5 Z " fill="#000000"/><ellipse cx="318.25" cy="22.5" fill="#84BE84" rx="3" ry="3" style="stroke:#038048;stroke-width:1.0;"/><text fill="#000000" font-family="sans-serif" font-size="14" font-style="italic" lengthAdjust="spacing" textLength="98" x="324.25" y="28.291">PlantBedUtility</text><line style="stroke:#181818;stroke-width:0.5;" x1="8" x2="695" y1="39" y2="39"/><line style="stroke:#181818;stroke-width:0.5;" x1="8" x2="695" y1="47" y2="47"/><ellipse cx="18" cy="60.7441" fill="#84BE84" rx="3" ry="3" style="stroke:#038048;stroke-width:1.0;"/><text fill="#000000" font-family="sans-serif" font-size="14" lengthAdjust="spacing" text-decoration="underline" textLength="525" x="27" y="64.5352">&lt;T&gt; splitBedByColor(bed: PlantBed&lt;T&gt;) : Map&lt;PlantColor, MagicalList&lt;T&gt;&gt;</text><ellipse cx="18" cy="77.2324" fill="#84BE84" rx="3" ry="3" style="stroke:#038048;stroke-width:1.0;"/><text fill="#000000" font-family="sans-serif" font-size="14" lengthAdjust="spacing" text-decoration="underline" textLength="424" x="27" y="81.0234">&lt;T&gt; pecs(dest: MagicalList&lt;T&gt;, source: MagicalList&lt;T&gt;): void</text><ellipse cx="18" cy="93.7207" fill="#84BE84" rx="3" ry="3" style="stroke:#038048;stroke-width:1.0;"/><text fill="#000000" font-family="sans-serif" font-size="14" lengthAdjust="spacing" text-decoration="underline" textLength="663" x="27" y="97.5117">&lt;T&gt; pecsWithFilter(dest: MagicalList&lt;T&gt;, source: MagicalList&lt;T&gt;, predicate: Predicate&lt;T&gt;): void</text></g><!--SRC=[bOsn2i9038Ptdo9ZI_i4H-bGmKd1GN5ExmuD7DvnYK8fVNTZKOUAWvcIFr- -001KsBDaj08s83Fi0rwby-ue54Y6SGMlgaOM5B8JD8SMEEbMiMvOnn1pqNjdFhSAb61WXwcPencfTJwJnR0b5YNQR_DJdBpbmdaMi-1hu7ZBrY_pqi0zaljjEv5SDXJ4vx-yDQJidGQYg_sxNJoS7W00]--></g></svg>