<?xml version="1.0" encoding="us-ascii" standalone="no"?><svg xmlns="http://www.w3.org/2000/svg" xmlns:xlink="http://www.w3.org/1999/xlink" contentStyleType="text/css" height="536px" preserveAspectRatio="none" style="width:775px;height:536px;background:#FFFFFF;" version="1.1" viewBox="0 0 775 536" width="775px" zoomAndPan="magnify"><defs/><g><!--class SimpleFilter--><g id="elem_SimpleFilter"><rect codeLine="1" fill="#F1F1F1" height="64.4883" id="SimpleFilter" rx="2.5" ry="2.5" style="stroke:#181818;stroke-width:0.5;" width="224" x="38.5" y="7"/><ellipse cx="105.75" cy="23" fill="#B4A7E5" rx="11" ry="11" style="stroke:#181818;stroke-width:1.0;"/><path d="M101.6777,18.7651 L101.6777,16.6069 L109.0571,16.6069 L109.0571,18.7651 L106.5918,18.7651 L106.5918,26.8418 L109.0571,26.8418 L109.0571,29 L101.6777,29 L101.6777,26.8418 L104.1431,26.8418 L104.1431,18.7651 Z " fill="#000000"/><text fill="#000000" font-family="sans-serif" font-size="14" font-style="italic" lengthAdjust="spacing" textLength="81" x="126.25" y="28.291">SimpleFilter</text><line style="stroke:#181818;stroke-width:0.5;" x1="39.5" x2="261.5" y1="39" y2="39"/><line style="stroke:#181818;stroke-width:0.5;" x1="39.5" x2="261.5" y1="47" y2="47"/><ellipse cx="49.5" cy="60.7441" fill="#84BE84" rx="3" ry="3" style="stroke:#038048;stroke-width:1.0;"/><text fill="#000000" font-family="sans-serif" font-size="14" lengthAdjust="spacing" textLength="198" x="58.5" y="64.5352">boolean include(Object item)</text></g><!--class Iterable--><g id="elem_Iterable"><rect codeLine="5" fill="#F1F1F1" height="64.4883" id="Iterable" rx="2.5" ry="2.5" style="stroke:#181818;stroke-width:0.5;" width="142" x="328.5" y="148.98"/><ellipse cx="369.6" cy="164.98" fill="#B4A7E5" rx="11" ry="11" style="stroke:#181818;stroke-width:1.0;"/><path d="M365.5277,160.7451 L365.5277,158.5869 L372.9071,158.5869 L372.9071,160.7451 L370.4418,160.7451 L370.4418,168.8218 L372.9071,168.8218 L372.9071,170.98 L365.5277,170.98 L365.5277,168.8218 L367.9931,168.8218 L367.9931,160.7451 Z " fill="#000000"/><text fill="#000000" font-family="sans-serif" font-size="14" font-style="italic" lengthAdjust="spacing" textLength="52" x="389.4" y="170.271">Iterable</text><line style="stroke:#181818;stroke-width:0.5;" x1="329.5" x2="469.5" y1="180.98" y2="180.98"/><line style="stroke:#181818;stroke-width:0.5;" x1="329.5" x2="469.5" y1="188.98" y2="188.98"/><ellipse cx="339.5" cy="202.7241" fill="#84BE84" rx="3" ry="3" style="stroke:#038048;stroke-width:1.0;"/><text fill="#000000" font-family="sans-serif" font-size="14" lengthAdjust="spacing" textLength="116" x="348.5" y="206.5152">Iterator iterator()</text></g><!--class Iterator--><g id="elem_Iterator"><rect codeLine="9" fill="#F1F1F1" height="80.9766" id="Iterator" rx="2.5" ry="2.5" style="stroke:#181818;stroke-width:0.5;" width="152" x="591.5" y="323.45"/><ellipse cx="637.75" cy="339.45" fill="#B4A7E5" rx="11" ry="11" style="stroke:#181818;stroke-width:1.0;"/><path d="M633.6777,335.2151 L633.6777,333.0569 L641.0571,333.0569 L641.0571,335.2151 L638.5918,335.2151 L638.5918,343.2918 L641.0571,343.2918 L641.0571,345.45 L633.6777,345.45 L633.6777,343.2918 L636.1431,343.2918 L636.1431,335.2151 Z " fill="#000000"/><text fill="#000000" font-family="sans-serif" font-size="14" font-style="italic" lengthAdjust="spacing" textLength="51" x="658.25" y="344.741">Iterator</text><line style="stroke:#181818;stroke-width:0.5;" x1="592.5" x2="742.5" y1="355.45" y2="355.45"/><line style="stroke:#181818;stroke-width:0.5;" x1="592.5" x2="742.5" y1="363.45" y2="363.45"/><ellipse cx="602.5" cy="377.1941" fill="#84BE84" rx="3" ry="3" style="stroke:#038048;stroke-width:1.0;"/><text fill="#000000" font-family="sans-serif" font-size="14" lengthAdjust="spacing" textLength="126" x="611.5" y="380.9852">boolean hasNext()</text><ellipse cx="602.5" cy="393.6824" fill="#84BE84" rx="3" ry="3" style="stroke:#038048;stroke-width:1.0;"/><text fill="#000000" font-family="sans-serif" font-size="14" lengthAdjust="spacing" textLength="89" x="611.5" y="397.4734">Object next()</text></g><!--class SpellbookList--><g id="elem_SpellbookList"><rect codeLine="15" fill="#F1F1F1" height="97.4648" id="SpellbookList" rx="2.5" ry="2.5" style="stroke:#181818;stroke-width:0.5;" width="287" x="7" y="132.49"/><ellipse cx="100.75" cy="148.49" fill="#B4A7E5" rx="11" ry="11" style="stroke:#181818;stroke-width:1.0;"/><path d="M96.6777,144.2551 L96.6777,142.0969 L104.0571,142.0969 L104.0571,144.2551 L101.5918,144.2551 L101.5918,152.3318 L104.0571,152.3318 L104.0571,154.49 L96.6777,154.49 L96.6777,152.3318 L99.1431,152.3318 L99.1431,144.2551 Z " fill="#000000"/><text fill="#000000" font-family="sans-serif" font-size="14" font-style="italic" lengthAdjust="spacing" textLength="91" x="121.25" y="153.781">SpellbookList</text><line style="stroke:#181818;stroke-width:0.5;" x1="8" x2="293" y1="164.49" y2="164.49"/><line style="stroke:#181818;stroke-width:0.5;" x1="8" x2="293" y1="172.49" y2="172.49"/><ellipse cx="18" cy="186.2341" fill="#84BE84" rx="3" ry="3" style="stroke:#038048;stroke-width:1.0;"/><text fill="#000000" font-family="sans-serif" font-size="14" lengthAdjust="spacing" textLength="147" x="27" y="190.0252">void add(Object item)</text><ellipse cx="18" cy="202.7224" fill="#84BE84" rx="3" ry="3" style="stroke:#038048;stroke-width:1.0;"/><text fill="#000000" font-family="sans-serif" font-size="14" lengthAdjust="spacing" textLength="59" x="27" y="206.5134">int size()</text><ellipse cx="18" cy="219.2107" fill="#84BE84" rx="3" ry="3" style="stroke:#038048;stroke-width:1.0;"/><text fill="#000000" font-family="sans-serif" font-size="14" lengthAdjust="spacing" textLength="261" x="27" y="223.0017">SpellbookList filter(SimpleFilter filter)_</text></g><!--class SpellbookListImple--><g id="elem_SpellbookListImple"><rect codeLine="21" fill="#F1F1F1" height="113.9531" id="SpellbookListImple" rx="2.5" ry="2.5" style="stroke:#181818;stroke-width:0.5;" width="214" x="342.5" y="306.96"/><ellipse cx="381.35" cy="322.96" fill="#ADD1B2" rx="11" ry="11" style="stroke:#181818;stroke-width:1.0;"/><path d="M384.3231,328.6031 Q383.7421,328.9019 383.1029,329.0513 Q382.4638,329.2007 381.7582,329.2007 Q379.2514,329.2007 377.9315,327.5489 Q376.6117,325.897 376.6117,322.7759 Q376.6117,319.6465 377.9315,317.9947 Q379.2514,316.3428 381.7582,316.3428 Q382.4638,316.3428 383.1112,316.4922 Q383.7587,316.6416 384.3231,316.9405 L384.3231,319.6631 Q383.6923,319.0821 383.0988,318.8123 Q382.5053,318.5425 381.8744,318.5425 Q380.5297,318.5425 379.8449,319.6092 Q379.1601,320.6758 379.1601,322.7759 Q379.1601,324.8677 379.8449,325.9344 Q380.5297,327.001 381.8744,327.001 Q382.5053,327.001 383.0988,326.7312 Q383.6923,326.4615 384.3231,325.8804 Z " fill="#000000"/><text fill="#000000" font-family="sans-serif" font-size="14" lengthAdjust="spacing" textLength="129" x="400.65" y="328.251">SpellbookListImple</text><line style="stroke:#181818;stroke-width:0.5;" x1="343.5" x2="555.5" y1="338.96" y2="338.96"/><rect fill="none" height="6" style="stroke:#C82930;stroke-width:1.0;" width="6" x="350.5" y="349.7041"/><text fill="#000000" font-family="sans-serif" font-size="14" lengthAdjust="spacing" textLength="165" x="362.5" y="356.4952">head: SpellbookElement</text><line style="stroke:#181818;stroke-width:0.5;" x1="343.5" x2="555.5" y1="363.4483" y2="363.4483"/><ellipse cx="353.5" cy="377.1924" fill="#84BE84" rx="3" ry="3" style="stroke:#038048;stroke-width:1.0;"/><text fill="#000000" font-family="sans-serif" font-size="14" lengthAdjust="spacing" textLength="147" x="362.5" y="380.9834">void add(Object item)</text><ellipse cx="353.5" cy="393.6807" fill="#84BE84" rx="3" ry="3" style="stroke:#038048;stroke-width:1.0;"/><text fill="#000000" font-family="sans-serif" font-size="14" lengthAdjust="spacing" textLength="59" x="362.5" y="397.4717">int size()</text><ellipse cx="353.5" cy="410.169" fill="#84BE84" rx="3" ry="3" style="stroke:#038048;stroke-width:1.0;"/><text fill="#000000" font-family="sans-serif" font-size="14" lengthAdjust="spacing" textLength="188" x="362.5" y="413.96">iterator(): SpellbookIterator</text></g><!--class SpellbookIterator--><g id="elem_SpellbookIterator"><rect codeLine="29" fill="#F1F1F1" height="48" id="SpellbookIterator" rx="2.5" ry="2.5" style="stroke:#181818;stroke-width:0.5;" width="162" x="477.5" y="481.91"/><ellipse cx="492.5" cy="497.91" fill="#ADD1B2" rx="11" ry="11" style="stroke:#181818;stroke-width:1.0;"/><path d="M495.4731,503.5531 Q494.8921,503.8519 494.2529,504.0013 Q493.6138,504.1507 492.9082,504.1507 Q490.4014,504.1507 489.0815,502.4989 Q487.7617,500.847 487.7617,497.7259 Q487.7617,494.5965 489.0815,492.9447 Q490.4014,491.2928 492.9082,491.2928 Q493.6138,491.2928 494.2612,491.4422 Q494.9087,491.5916 495.4731,491.8905 L495.4731,494.6131 Q494.8423,494.0321 494.2488,493.7623 Q493.6553,493.4925 493.0244,493.4925 Q491.6797,493.4925 490.9949,494.5592 Q490.3101,495.6258 490.3101,497.7259 Q490.3101,499.8177 490.9949,500.8844 Q491.6797,501.951 493.0244,501.951 Q493.6553,501.951 494.2488,501.6812 Q494.8423,501.4115 495.4731,500.8304 Z " fill="#000000"/><rect fill="#F24D5C" height="6" style="stroke:#C82930;stroke-width:1.0;" width="6" x="508.5" y="494.41"/><text fill="#000000" font-family="sans-serif" font-size="14" lengthAdjust="spacing" textLength="119" x="517.5" y="503.201">SpellbookIterator</text><line style="stroke:#181818;stroke-width:0.5;" x1="478.5" x2="638.5" y1="513.91" y2="513.91"/><line style="stroke:#181818;stroke-width:0.5;" x1="478.5" x2="638.5" y1="521.91" y2="521.91"/></g><!--class SpellbookElement--><g id="elem_SpellbookElement"><rect codeLine="32" fill="#F1F1F1" height="80.9766" id="SpellbookElement" rx="2.5" ry="2.5" style="stroke:#181818;stroke-width:0.5;" width="188" x="505.5" y="140.74"/><ellipse cx="530.4" cy="156.74" fill="#ADD1B2" rx="11" ry="11" style="stroke:#181818;stroke-width:1.0;"/><path d="M533.3731,162.3831 Q532.7921,162.6819 532.1529,162.8313 Q531.5138,162.9807 530.8082,162.9807 Q528.3014,162.9807 526.9815,161.3289 Q525.6617,159.677 525.6617,156.5559 Q525.6617,153.4265 526.9815,151.7747 Q528.3014,150.1228 530.8082,150.1228 Q531.5138,150.1228 532.1612,150.2722 Q532.8087,150.4216 533.3731,150.7205 L533.3731,153.4431 Q532.7423,152.8621 532.1488,152.5923 Q531.5553,152.3225 530.9244,152.3225 Q529.5797,152.3225 528.8949,153.3892 Q528.2101,154.4558 528.2101,156.5559 Q528.2101,158.6477 528.8949,159.7144 Q529.5797,160.781 530.9244,160.781 Q531.5553,160.781 532.1488,160.5112 Q532.7423,160.2415 533.3731,159.6604 Z " fill="#000000"/><rect fill="#F24D5C" height="6" style="stroke:#C82930;stroke-width:1.0;" width="6" x="548.6" y="153.24"/><text fill="#000000" font-family="sans-serif" font-size="14" lengthAdjust="spacing" textLength="123" x="557.6" y="162.031">SpellbookElement</text><line style="stroke:#181818;stroke-width:0.5;" x1="506.5" x2="692.5" y1="172.74" y2="172.74"/><rect fill="none" height="6" style="stroke:#C82930;stroke-width:1.0;" width="6" x="513.5" y="183.4841"/><text fill="#000000" font-family="sans-serif" font-size="14" lengthAdjust="spacing" textLength="82" x="525.5" y="190.2752">item: Object</text><rect fill="none" height="6" style="stroke:#C82930;stroke-width:1.0;" width="6" x="513.5" y="199.9724"/><text fill="#000000" font-family="sans-serif" font-size="14" lengthAdjust="spacing" textLength="162" x="525.5" y="206.7634">next: SpellbookElement</text><line style="stroke:#181818;stroke-width:0.5;" x1="506.5" x2="692.5" y1="213.7166" y2="213.7166"/></g><!--reverse link SpellbookList to SpellbookListImple--><g id="link_SpellbookList_SpellbookListImple"><path d="M245.636,239.7188 C284.396,263.1388 315.8,282.13 356.2,306.55 " fill="none" id="SpellbookList-backto-SpellbookListImple" style="stroke:#181818;stroke-width:1.0;stroke-dasharray:7.0,7.0;"/><polygon fill="none" points="230.23,230.41,242.5331,244.8542,248.739,234.5835,230.23,230.41" style="stroke:#181818;stroke-width:1.0;"/></g><!--reverse link Iterable to SpellbookListImple--><g id="link_Iterable_SpellbookListImple"><path d="M413.0098,231.0483 C420.0898,256.6383 425.45,276.02 433.93,306.65 " fill="none" id="Iterable-backto-SpellbookListImple" style="stroke:#181818;stroke-width:1.0;stroke-dasharray:7.0,7.0;"/><polygon fill="none" points="408.21,213.7,407.227,232.6482,418.7925,229.4483,408.21,213.7" style="stroke:#181818;stroke-width:1.0;"/></g><!--reverse link Iterator to SpellbookIterator--><g id="link_Iterator_SpellbookIterator"><path d="M625.5008,418.8719 C606.1108,443.7719 592.86,460.78 576.57,481.71 " fill="none" id="Iterator-backto-SpellbookIterator" style="stroke:#181818;stroke-width:1.0;stroke-dasharray:7.0,7.0;"/><polygon fill="none" points="636.56,404.67,620.7668,415.1855,630.2347,422.5583,636.56,404.67" style="stroke:#181818;stroke-width:1.0;"/></g><!--link SpellbookElement to SpellbookListImple--><g id="link_SpellbookElement_SpellbookListImple"><path codeLine="37" d="M555.52,221.85 C543.33,233.64 530.46,246.91 519.5,259.96 C507.34,274.44 502.0398,281.1247 491.4798,296.7147 " fill="none" id="SpellbookElement-to-SpellbookListImple" style="stroke:#181818;stroke-width:1.0;"/><polygon fill="#181818" points="484.75,306.65,491.4266,303.9256,491.4798,296.7147,484.8031,299.4391,484.75,306.65" style="stroke:#181818;stroke-width:1.0;"/><text fill="#000000" font-family="sans-serif" font-size="13" lengthAdjust="spacing" textLength="30" x="520.5" y="273.5284">head</text></g><!--link SpellbookElement to SpellbookListImple--><g id="link_SpellbookElement_SpellbookListImple"><path codeLine="39" d="M585.83,221.81 C578.5,239.72 568.32,260.51 555.5,276.96 C547.34,287.42 549.4905,286.6259 539.3805,295.8659 " fill="none" id="SpellbookElement-to-SpellbookListImple-1" style="stroke:#181818;stroke-width:1.0;"/><ellipse cx="533.4752" cy="301.2629" fill="#FFFFFF" rx="8" ry="8" style="stroke:#181818;stroke-width:1.0;"/><line style="stroke:#181818;stroke-width:1.0;" x1="539.3805" x2="527.57" y1="295.8659" y2="306.66"/><line style="stroke:#181818;stroke-width:1.0;" x1="538.8723" x2="528.0782" y1="307.1682" y2="295.3577"/></g><!--link SpellbookElement to SpellbookElement--><g id="link_SpellbookElement_SpellbookElement"><path codeLine="38" d="M694,166.85 C714.03,168.31 728.5,173.1 728.5,181.22 C728.5,189.35 725.9982,193.2676 705.9682,194.7276 " fill="none" id="SpellbookElement-to-SpellbookElement" style="stroke:#181818;stroke-width:1.0;"/><polygon fill="#181818" points="694,195.6,700.2749,199.1532,705.9682,194.7276,699.6933,191.1744,694,195.6" style="stroke:#181818;stroke-width:1.0;"/><text fill="#000000" font-family="sans-serif" font-size="13" lengthAdjust="spacing" textLength="28" x="734.5" y="186.2884">next</text></g><!--reverse link SimpleFilter to SpellbookList--><g id="link_SimpleFilter_SpellbookList"><path codeLine="40" d="M150.5,77.66 C150.5,95.48 150.5,112.14 150.5,132.14 " fill="none" id="SimpleFilter-backto-SpellbookList" style="stroke:#181818;stroke-width:1.0;stroke-dasharray:7.0,7.0;"/><polygon fill="#181818" points="150.5,71.66,146.5,80.66,150.5,76.66,154.5,80.66,150.5,71.66" style="stroke:#181818;stroke-width:1.0;"/></g><!--link SpellbookListImple to SpellbookIterator--><g id="link_SpellbookListImple_SpellbookIterator"><path codeLine="41" d="M493.21,421.06 C509.67,442.21 517.6817,452.4845 530.5417,469.0045 " fill="none" id="SpellbookListImple-to-SpellbookIterator" style="stroke:#181818;stroke-width:1.0;"/><ellipse cx="535.4558" cy="475.3172" fill="#FFFFFF" rx="8" ry="8" style="stroke:#181818;stroke-width:1.0;"/><line style="stroke:#181818;stroke-width:1.0;" x1="530.5417" x2="540.37" y1="469.0045" y2="481.63"/><line style="stroke:#181818;stroke-width:1.0;" x1="541.7686" x2="529.1431" y1="470.4031" y2="480.2314"/></g><!--SRC=[bL91JiCm43pZL-mn9RWFYBY2LAc2Gn-0d7YhBZXELHk4GFoTjTqGkrX2vEIiPsPdPqtMuscl1eGTZKU3zsIu09_YgksdoQ2oG7OmhngRn_uP1m_aSLo9Bo7eXxhXW-eDHbhyyTCf0EEXgQ4386zoKEu1tprZWR_stCkc4jCp_kw8nZ3lPKlEiqWal4saGMbTkenNp0H77pXhb_nz7BWffa-rrLDeF1ZbNDbp4w0G2IDQVt5xaySH6aeueDBTWhfBFF5lvqkYcTeSPp0hBzmkkrZCPl5N66TlOJSoEEaWsKgJX7rK1c6TNm9INjTIws8OVy3dOXSVG0tSLhH5iSFRzRh4Y8gRGcWEvXi0]--></g></svg>