<?xml version="1.0" encoding="us-ascii" standalone="no"?><svg xmlns="http://www.w3.org/2000/svg" xmlns:xlink="http://www.w3.org/1999/xlink" contentStyleType="text/css" height="536px" preserveAspectRatio="none" style="width:732px;height:536px;background:#FFFFFF;" version="1.1" viewBox="0 0 732 536" width="732px" zoomAndPan="magnify"><defs/><g><!--class SimpleFilter--><g id="elem_SimpleFilter"><rect codeLine="1" fill="#F1F1F1" height="64.4883" id="SimpleFilter" rx="2.5" ry="2.5" style="stroke:#181818;stroke-width:0.5;" width="224" x="27.5" y="7"/><ellipse cx="94.75" cy="23" fill="#B4A7E5" rx="11" ry="11" style="stroke:#181818;stroke-width:1.0;"/><path d="M90.6777,18.7651 L90.6777,16.6069 L98.0571,16.6069 L98.0571,18.7651 L95.5918,18.7651 L95.5918,26.8418 L98.0571,26.8418 L98.0571,29 L90.6777,29 L90.6777,26.8418 L93.1431,26.8418 L93.1431,18.7651 Z " fill="#000000"/><text fill="#000000" font-family="sans-serif" font-size="14" font-style="italic" lengthAdjust="spacing" textLength="81" x="115.25" y="28.291">SimpleFilter</text><line style="stroke:#181818;stroke-width:0.5;" x1="28.5" x2="250.5" y1="39" y2="39"/><line style="stroke:#181818;stroke-width:0.5;" x1="28.5" x2="250.5" y1="47" y2="47"/><ellipse cx="38.5" cy="60.7441" fill="#84BE84" rx="3" ry="3" style="stroke:#038048;stroke-width:1.0;"/><text fill="#000000" font-family="sans-serif" font-size="14" lengthAdjust="spacing" textLength="198" x="47.5" y="64.5352">boolean include(Object item)</text></g><!--class Iterable--><g id="elem_Iterable"><rect codeLine="5" fill="#F1F1F1" height="64.4883" id="Iterable" rx="2.5" ry="2.5" style="stroke:#181818;stroke-width:0.5;" width="142" x="307.5" y="148.98"/><ellipse cx="348.6" cy="164.98" fill="#B4A7E5" rx="11" ry="11" style="stroke:#181818;stroke-width:1.0;"/><path d="M344.5277,160.7451 L344.5277,158.5869 L351.9071,158.5869 L351.9071,160.7451 L349.4418,160.7451 L349.4418,168.8218 L351.9071,168.8218 L351.9071,170.98 L344.5277,170.98 L344.5277,168.8218 L346.9931,168.8218 L346.9931,160.7451 Z " fill="#000000"/><text fill="#000000" font-family="sans-serif" font-size="14" font-style="italic" lengthAdjust="spacing" textLength="52" x="368.4" y="170.271">Iterable</text><line style="stroke:#181818;stroke-width:0.5;" x1="308.5" x2="448.5" y1="180.98" y2="180.98"/><line style="stroke:#181818;stroke-width:0.5;" x1="308.5" x2="448.5" y1="188.98" y2="188.98"/><ellipse cx="318.5" cy="202.7241" fill="#84BE84" rx="3" ry="3" style="stroke:#038048;stroke-width:1.0;"/><text fill="#000000" font-family="sans-serif" font-size="14" lengthAdjust="spacing" textLength="116" x="327.5" y="206.5152">Iterator iterator()</text></g><!--class Iterator--><g id="elem_Iterator"><rect codeLine="9" fill="#F1F1F1" height="80.9766" id="Iterator" rx="2.5" ry="2.5" style="stroke:#181818;stroke-width:0.5;" width="152" x="568.5" y="323.45"/><ellipse cx="614.75" cy="339.45" fill="#B4A7E5" rx="11" ry="11" style="stroke:#181818;stroke-width:1.0;"/><path d="M610.6777,335.2151 L610.6777,333.0569 L618.0571,333.0569 L618.0571,335.2151 L615.5918,335.2151 L615.5918,343.2918 L618.0571,343.2918 L618.0571,345.45 L610.6777,345.45 L610.6777,343.2918 L613.1431,343.2918 L613.1431,335.2151 Z " fill="#000000"/><text fill="#000000" font-family="sans-serif" font-size="14" font-style="italic" lengthAdjust="spacing" textLength="51" x="635.25" y="344.741">Iterator</text><line style="stroke:#181818;stroke-width:0.5;" x1="569.5" x2="719.5" y1="355.45" y2="355.45"/><line style="stroke:#181818;stroke-width:0.5;" x1="569.5" x2="719.5" y1="363.45" y2="363.45"/><ellipse cx="579.5" cy="377.1941" fill="#84BE84" rx="3" ry="3" style="stroke:#038048;stroke-width:1.0;"/><text fill="#000000" font-family="sans-serif" font-size="14" lengthAdjust="spacing" textLength="126" x="588.5" y="380.9852">boolean hasNext()</text><ellipse cx="579.5" cy="393.6824" fill="#84BE84" rx="3" ry="3" style="stroke:#038048;stroke-width:1.0;"/><text fill="#000000" font-family="sans-serif" font-size="14" lengthAdjust="spacing" textLength="89" x="588.5" y="397.4734">Object next()</text></g><!--class SimpleList--><g id="elem_SimpleList"><rect codeLine="15" fill="#F1F1F1" height="97.4648" id="SimpleList" rx="2.5" ry="2.5" style="stroke:#181818;stroke-width:0.5;" width="265" x="7" y="132.49"/><ellipse cx="100.75" cy="148.49" fill="#B4A7E5" rx="11" ry="11" style="stroke:#181818;stroke-width:1.0;"/><path d="M96.6777,144.2551 L96.6777,142.0969 L104.0571,142.0969 L104.0571,144.2551 L101.5918,144.2551 L101.5918,152.3318 L104.0571,152.3318 L104.0571,154.49 L96.6777,154.49 L96.6777,152.3318 L99.1431,152.3318 L99.1431,144.2551 Z " fill="#000000"/><text fill="#000000" font-family="sans-serif" font-size="14" font-style="italic" lengthAdjust="spacing" textLength="69" x="121.25" y="153.781">SimpleList</text><line style="stroke:#181818;stroke-width:0.5;" x1="8" x2="271" y1="164.49" y2="164.49"/><line style="stroke:#181818;stroke-width:0.5;" x1="8" x2="271" y1="172.49" y2="172.49"/><ellipse cx="18" cy="186.2341" fill="#84BE84" rx="3" ry="3" style="stroke:#038048;stroke-width:1.0;"/><text fill="#000000" font-family="sans-serif" font-size="14" lengthAdjust="spacing" textLength="147" x="27" y="190.0252">void add(Object item)</text><ellipse cx="18" cy="202.7224" fill="#84BE84" rx="3" ry="3" style="stroke:#038048;stroke-width:1.0;"/><text fill="#000000" font-family="sans-serif" font-size="14" lengthAdjust="spacing" textLength="59" x="27" y="206.5134">int size()</text><ellipse cx="18" cy="219.2107" fill="#84BE84" rx="3" ry="3" style="stroke:#038048;stroke-width:1.0;"/><text fill="#000000" font-family="sans-serif" font-size="14" lengthAdjust="spacing" textLength="239" x="27" y="223.0017">SimpleList filter(SimpleFilter filter)_</text></g><!--class SpellbookList--><g id="elem_SpellbookList"><rect codeLine="21" fill="#F1F1F1" height="113.9531" id="SpellbookList" rx="2.5" ry="2.5" style="stroke:#181818;stroke-width:0.5;" width="214" x="319.5" y="306.96"/><ellipse cx="376.75" cy="322.96" fill="#ADD1B2" rx="11" ry="11" style="stroke:#181818;stroke-width:1.0;"/><path d="M379.7231,328.6031 Q379.1421,328.9019 378.5029,329.0513 Q377.8638,329.2007 377.1582,329.2007 Q374.6514,329.2007 373.3315,327.5489 Q372.0117,325.897 372.0117,322.7759 Q372.0117,319.6465 373.3315,317.9947 Q374.6514,316.3428 377.1582,316.3428 Q377.8638,316.3428 378.5112,316.4922 Q379.1587,316.6416 379.7231,316.9405 L379.7231,319.6631 Q379.0923,319.0821 378.4988,318.8123 Q377.9053,318.5425 377.2744,318.5425 Q375.9297,318.5425 375.2449,319.6092 Q374.5601,320.6758 374.5601,322.7759 Q374.5601,324.8677 375.2449,325.9344 Q375.9297,327.001 377.2744,327.001 Q377.9053,327.001 378.4988,326.7312 Q379.0923,326.4615 379.7231,325.8804 Z " fill="#000000"/><text fill="#000000" font-family="sans-serif" font-size="14" lengthAdjust="spacing" textLength="91" x="397.25" y="328.251">SpellbookList</text><line style="stroke:#181818;stroke-width:0.5;" x1="320.5" x2="532.5" y1="338.96" y2="338.96"/><rect fill="none" height="6" style="stroke:#C82930;stroke-width:1.0;" width="6" x="327.5" y="349.7041"/><text fill="#000000" font-family="sans-serif" font-size="14" lengthAdjust="spacing" textLength="165" x="339.5" y="356.4952">head: SpellbookElement</text><line style="stroke:#181818;stroke-width:0.5;" x1="320.5" x2="532.5" y1="363.4483" y2="363.4483"/><ellipse cx="330.5" cy="377.1924" fill="#84BE84" rx="3" ry="3" style="stroke:#038048;stroke-width:1.0;"/><text fill="#000000" font-family="sans-serif" font-size="14" lengthAdjust="spacing" textLength="147" x="339.5" y="380.9834">void add(Object item)</text><ellipse cx="330.5" cy="393.6807" fill="#84BE84" rx="3" ry="3" style="stroke:#038048;stroke-width:1.0;"/><text fill="#000000" font-family="sans-serif" font-size="14" lengthAdjust="spacing" textLength="59" x="339.5" y="397.4717">int size()</text><ellipse cx="330.5" cy="410.169" fill="#84BE84" rx="3" ry="3" style="stroke:#038048;stroke-width:1.0;"/><text fill="#000000" font-family="sans-serif" font-size="14" lengthAdjust="spacing" textLength="188" x="339.5" y="413.96">iterator(): SpellbookIterator</text></g><!--class SpellbookIterator--><g id="elem_SpellbookIterator"><rect codeLine="29" fill="#F1F1F1" height="48" id="SpellbookIterator" rx="2.5" ry="2.5" style="stroke:#181818;stroke-width:0.5;" width="162" x="454.5" y="481.91"/><ellipse cx="469.5" cy="497.91" fill="#ADD1B2" rx="11" ry="11" style="stroke:#181818;stroke-width:1.0;"/><path d="M472.4731,503.5531 Q471.8921,503.8519 471.2529,504.0013 Q470.6138,504.1507 469.9082,504.1507 Q467.4014,504.1507 466.0815,502.4989 Q464.7617,500.847 464.7617,497.7259 Q464.7617,494.5965 466.0815,492.9447 Q467.4014,491.2928 469.9082,491.2928 Q470.6138,491.2928 471.2612,491.4422 Q471.9087,491.5916 472.4731,491.8905 L472.4731,494.6131 Q471.8423,494.0321 471.2488,493.7623 Q470.6553,493.4925 470.0244,493.4925 Q468.6797,493.4925 467.9949,494.5592 Q467.3101,495.6258 467.3101,497.7259 Q467.3101,499.8177 467.9949,500.8844 Q468.6797,501.951 470.0244,501.951 Q470.6553,501.951 471.2488,501.6812 Q471.8423,501.4115 472.4731,500.8304 Z " fill="#000000"/><rect fill="#F24D5C" height="6" style="stroke:#C82930;stroke-width:1.0;" width="6" x="485.5" y="494.41"/><text fill="#000000" font-family="sans-serif" font-size="14" lengthAdjust="spacing" textLength="119" x="494.5" y="503.201">SpellbookIterator</text><line style="stroke:#181818;stroke-width:0.5;" x1="455.5" x2="615.5" y1="513.91" y2="513.91"/><line style="stroke:#181818;stroke-width:0.5;" x1="455.5" x2="615.5" y1="521.91" y2="521.91"/></g><!--class SpellbookElement--><g id="elem_SpellbookElement"><rect codeLine="32" fill="#F1F1F1" height="80.9766" id="SpellbookElement" rx="2.5" ry="2.5" style="stroke:#181818;stroke-width:0.5;" width="166" x="484.5" y="140.74"/><ellipse cx="499.5" cy="156.74" fill="#ADD1B2" rx="11" ry="11" style="stroke:#181818;stroke-width:1.0;"/><path d="M502.4731,162.3831 Q501.8921,162.6819 501.2529,162.8313 Q500.6138,162.9807 499.9082,162.9807 Q497.4014,162.9807 496.0815,161.3289 Q494.7617,159.677 494.7617,156.5559 Q494.7617,153.4265 496.0815,151.7747 Q497.4014,150.1228 499.9082,150.1228 Q500.6138,150.1228 501.2612,150.2722 Q501.9087,150.4216 502.4731,150.7205 L502.4731,153.4431 Q501.8423,152.8621 501.2488,152.5923 Q500.6553,152.3225 500.0244,152.3225 Q498.6797,152.3225 497.9949,153.3892 Q497.3101,154.4558 497.3101,156.5559 Q497.3101,158.6477 497.9949,159.7144 Q498.6797,160.781 500.0244,160.781 Q500.6553,160.781 501.2488,160.5112 Q501.8423,160.2415 502.4731,159.6604 Z " fill="#000000"/><rect fill="#F24D5C" height="6" style="stroke:#C82930;stroke-width:1.0;" width="6" x="515.5" y="153.24"/><text fill="#000000" font-family="sans-serif" font-size="14" lengthAdjust="spacing" textLength="123" x="524.5" y="162.031">SpellbookElement</text><line style="stroke:#181818;stroke-width:0.5;" x1="485.5" x2="649.5" y1="172.74" y2="172.74"/><rect fill="none" height="6" style="stroke:#C82930;stroke-width:1.0;" width="6" x="492.5" y="183.4841"/><text fill="#000000" font-family="sans-serif" font-size="14" lengthAdjust="spacing" textLength="82" x="504.5" y="190.2752">item: Object</text><rect fill="none" height="6" style="stroke:#C82930;stroke-width:1.0;" width="6" x="492.5" y="199.9724"/><text fill="#000000" font-family="sans-serif" font-size="14" lengthAdjust="spacing" textLength="94" x="504.5" y="206.7634">next: Element</text><line style="stroke:#181818;stroke-width:0.5;" x1="485.5" x2="649.5" y1="213.7166" y2="213.7166"/></g><!--reverse link SimpleList to SpellbookList--><g id="link_SimpleList_SpellbookList"><path d="M231.2626,240 C268.4626,263.42 298.16,282.13 336.95,306.55 " fill="none" id="SimpleList-backto-SpellbookList" style="stroke:#181818;stroke-width:1.0;stroke-dasharray:7.0,7.0;"/><polygon fill="none" points="216.03,230.41,228.0659,245.0775,234.4593,234.9225,216.03,230.41" style="stroke:#181818;stroke-width:1.0;"/></g><!--reverse link Iterable to SpellbookList--><g id="link_Iterable_SpellbookList"><path d="M391.4827,231.0963 C398.2827,256.6863 403.42,276.02 411.55,306.65 " fill="none" id="Iterable-backto-SpellbookList" style="stroke:#181818;stroke-width:1.0;stroke-dasharray:7.0,7.0;"/><polygon fill="none" points="386.86,213.7,385.6839,232.6372,397.2815,229.5554,386.86,213.7" style="stroke:#181818;stroke-width:1.0;"/></g><!--reverse link Iterator to SpellbookIterator--><g id="link_Iterator_SpellbookIterator"><path d="M602.5008,418.8719 C583.1108,443.7719 569.86,460.78 553.57,481.71 " fill="none" id="Iterator-backto-SpellbookIterator" style="stroke:#181818;stroke-width:1.0;stroke-dasharray:7.0,7.0;"/><polygon fill="none" points="613.56,404.67,597.7668,415.1855,607.2347,422.5583,613.56,404.67" style="stroke:#181818;stroke-width:1.0;"/></g><!--link SpellbookElement to SpellbookList--><g id="link_SpellbookElement_SpellbookList"><path codeLine="37" d="M524.52,222.17 C512.91,233.85 500.74,246.99 490.5,259.96 C479.09,274.41 474.3158,280.8165 464.6658,296.4065 " fill="none" id="SpellbookElement-to-SpellbookList" style="stroke:#181818;stroke-width:1.0;"/><polygon fill="#181818" points="458.35,306.61,464.9091,303.6135,464.6658,296.4065,458.1067,299.403,458.35,306.61" style="stroke:#181818;stroke-width:1.0;"/><text fill="#000000" font-family="sans-serif" font-size="13" lengthAdjust="spacing" textLength="30" x="491.5" y="273.5284">head</text></g><!--link SpellbookElement to SpellbookList--><g id="link_SpellbookElement_SpellbookList"><path codeLine="39" d="M554.83,222.14 C548.07,239.92 538.61,260.5 526.5,276.96 C518.83,287.37 521.1956,286.2718 511.5856,295.5418 " fill="none" id="SpellbookElement-to-SpellbookList-1" style="stroke:#181818;stroke-width:1.0;"/><ellipse cx="505.8278" cy="301.0959" fill="#FFFFFF" rx="8" ry="8" style="stroke:#181818;stroke-width:1.0;"/><line style="stroke:#181818;stroke-width:1.0;" x1="511.5856" x2="500.07" y1="295.5418" y2="306.65"/><line style="stroke:#181818;stroke-width:1.0;" x1="511.3819" x2="500.2737" y1="306.8537" y2="295.3381"/></g><!--link SpellbookElement to SpellbookElement--><g id="link_SpellbookElement_SpellbookElement"><path codeLine="38" d="M650.75,166.63 C670.71,167.77 685.5,172.64 685.5,181.22 C685.5,189.81 682.6905,193.9957 662.7305,195.1357 " fill="none" id="SpellbookElement-to-SpellbookElement" style="stroke:#181818;stroke-width:1.0;"/><polygon fill="#181818" points="650.75,195.82,656.9683,199.4714,662.7305,195.1357,656.5122,191.4844,650.75,195.82" style="stroke:#181818;stroke-width:1.0;"/><text fill="#000000" font-family="sans-serif" font-size="13" lengthAdjust="spacing" textLength="28" x="691.5" y="186.2884">next</text></g><!--reverse link SimpleFilter to SimpleList--><g id="link_SimpleFilter_SimpleList"><path codeLine="40" d="M139.5,77.66 C139.5,95.48 139.5,112.14 139.5,132.14 " fill="none" id="SimpleFilter-backto-SimpleList" style="stroke:#181818;stroke-width:1.0;stroke-dasharray:7.0,7.0;"/><polygon fill="#181818" points="139.5,71.66,135.5,80.66,139.5,76.66,143.5,80.66,139.5,71.66" style="stroke:#181818;stroke-width:1.0;"/></g><!--link SpellbookList to SpellbookIterator--><g id="link_SpellbookList_SpellbookIterator"><path codeLine="41" d="M470.21,421.06 C486.67,442.21 494.6817,452.4845 507.5417,469.0045 " fill="none" id="SpellbookList-to-SpellbookIterator" style="stroke:#181818;stroke-width:1.0;"/><ellipse cx="512.4558" cy="475.3172" fill="#FFFFFF" rx="8" ry="8" style="stroke:#181818;stroke-width:1.0;"/><line style="stroke:#181818;stroke-width:1.0;" x1="507.5417" x2="517.37" y1="469.0045" y2="481.63"/><line style="stroke:#181818;stroke-width:1.0;" x1="518.7686" x2="506.1431" y1="470.4031" y2="480.2314"/></g><!--SRC=[bP51JiCm44NN-1IpJ0dk0QnkGK92iEW1a1DFLOFZLBLR8L3lNdjSDtQ9XCWgcVmty-UFjXxt6zaZhFMmC_YaJIZ03xjhkt4qA2resvk3mkQj-y3UW_OuBDY9CNr5dyEBx0mIHXz-t4SXlJHpwYWeXsobUyKl7xGGdlOoowPIm0i-6NtHpeSEf3wEMe5KghP8lm86JdzZRbp06rgrgVPEjSLx7DaRwHoiTsXCSFb936a7jDuLDXxA0E8K3bkKIapiOuBOl-rE6HRTSe3H9BznEQK_EIq2do4ktk8rU7GY8DbAcyGB2CZ-0_wBu_p-9YH1w_-Xp4L1HvuJjtLRLXrgjLmM5s2rWOhDsvy1]--></g></svg>