<?xml version="1.0" encoding="us-ascii" standalone="no"?><!--
  - Copyright (c) 12.12.23, 17:51
  - Since: Dezember 2023
  -   <p>
  - Author: dustin
  -  <p>
  - Name: state-machine-spec-inheritance.svg
  -  <p>
  - Project-name: HarryPotter
  -
  -->

<svg xmlns="http://www.w3.org/2000/svg" xmlns:xlink="http://www.w3.org/1999/xlink" contentStyleType="text/css" height="492px" preserveAspectRatio="none" style="width:238px;height:492px;background:#FFFFFF;" version="1.1" viewBox="0 0 238 492" width="238px" zoomAndPan="magnify"><defs/><g><ellipse cx="176.5" cy="16" fill="#222222" rx="10" ry="10" style="stroke:#222222;stroke-width:1.0;"/><g id="Sleeping"><rect fill="#F1F1F1" height="50" rx="12.5" ry="12.5" style="stroke:#181818;stroke-width:0.5;" width="79" x="137" y="87"/><line style="stroke:#181818;stroke-width:0.5;" x1="137" x2="216" y1="113.4883" y2="113.4883"/><text fill="#000000" font-family="sans-serif" font-size="14" lengthAdjust="spacing" textLength="59" x="147" y="105.5352">Sleeping</text></g><g id="Flying"><rect fill="#F1F1F1" height="50" rx="12.5" ry="12.5" style="stroke:#181818;stroke-width:0.5;" width="61" x="102" y="198"/><line style="stroke:#181818;stroke-width:0.5;" x1="102" x2="163" y1="224.4883" y2="224.4883"/><text fill="#000000" font-family="sans-serif" font-size="14" lengthAdjust="spacing" textLength="41" x="112" y="216.5352">Flying</text></g><g id="Dead"><rect fill="#F1F1F1" height="50" rx="12.5" ry="12.5" style="stroke:#181818;stroke-width:0.5;" width="55" x="7" y="325"/><line style="stroke:#181818;stroke-width:0.5;" x1="7" x2="62" y1="351.4883" y2="351.4883"/><text fill="#000000" font-family="sans-serif" font-size="14" lengthAdjust="spacing" textLength="35" x="17" y="343.5352">Dead</text></g><ellipse cx="34.5" cy="461" fill="none" rx="11" ry="11" style="stroke:#222222;stroke-width:1.0;"/><ellipse cx="34.5" cy="461" fill="#222222" rx="6" ry="6" style="stroke:#222222;stroke-width:1.0;"/><g id="Resting"><rect fill="#F1F1F1" height="50" rx="12.5" ry="12.5" style="stroke:#181818;stroke-width:0.5;" width="71" x="97" y="325"/><line style="stroke:#181818;stroke-width:0.5;" x1="97" x2="168" y1="351.4883" y2="351.4883"/><text fill="#000000" font-family="sans-serif" font-size="14" lengthAdjust="spacing" textLength="51" x="107" y="343.5352">Resting</text></g><g id="Playful"><rect fill="#F1F1F1" height="50" rx="12.5" ry="12.5" style="stroke:#181818;stroke-width:0.5;" width="65" x="166" y="436"/><line style="stroke:#181818;stroke-width:0.5;" x1="166" x2="231" y1="462.4883" y2="462.4883"/><text fill="#000000" font-family="sans-serif" font-size="14" lengthAdjust="spacing" textLength="45" x="176" y="454.5352">Playful</text></g><!--link *start* to Sleeping--><g id="link_*start*_Sleeping"><path d="M176.5,26.36 C176.5,40.29 176.5,60.95 176.5,80.65 " fill="none" id="*start*-to-Sleeping" style="stroke:#181818;stroke-width:1.0;"/><polygon fill="#181818" points="176.5,86.65,180.5,77.65,176.5,81.65,172.5,77.65,176.5,86.65" style="stroke:#181818;stroke-width:1.0;"/></g><!--link Flying to Dead--><g id="link_Flying_Dead"><path d="M101.54,247.57 C91.2,256.39 80.12,266.97 71.5,278 C60.37,292.24 53.4937,304.8582 46.9637,319.2182 " fill="none" id="Flying-to-Dead" style="stroke:#181818;stroke-width:1.0;"/><polygon fill="#181818" points="44.48,324.68,51.8467,318.1431,46.5497,320.1285,44.5643,314.8315,44.48,324.68" style="stroke:#181818;stroke-width:1.0;"/><text fill="#000000" font-family="sans-serif" font-size="13" lengthAdjust="spacing" textLength="51" x="72.5" y="291.5684">not flew</text></g><!--link Dead to *end*--><g id="link_Dead_*end*"><path d="M34.5,375.46 C34.5,398.81 34.5,426.86 34.5,443.73 " fill="none" id="Dead-to-*end*" style="stroke:#181818;stroke-width:1.0;"/><polygon fill="#181818" points="34.5,449.73,38.5,440.73,34.5,444.73,30.5,440.73,34.5,449.73" style="stroke:#181818;stroke-width:1.0;"/></g><!--link Flying to Resting--><g id="link_Flying_Resting"><path d="M132.5,248.4 C132.5,270.42 132.5,296.66 132.5,318.66 " fill="none" id="Flying-to-Resting" style="stroke:#181818;stroke-width:1.0;"/><polygon fill="#181818" points="132.5,324.66,136.5,315.66,132.5,319.66,128.5,315.66,132.5,324.66" style="stroke:#181818;stroke-width:1.0;"/><text fill="#000000" font-family="sans-serif" font-size="13" lengthAdjust="spacing" textLength="26" x="133.5" y="291.5684">flew</text></g><!--link Resting to Playful--><g id="link_Resting_Playful"><path d="M147.31,375.46 C158.18,393.41 169.7716,412.558 180.6316,430.488 " fill="none" id="Resting-to-Playful" style="stroke:#181818;stroke-width:1.0;"/><polygon fill="#181818" points="183.74,435.62,182.4987,425.8497,181.1497,431.3433,175.656,429.9942,183.74,435.62" style="stroke:#181818;stroke-width:1.0;"/></g><!--link Playful to Sleeping--><g id="link_Playful_Sleeping"><path d="M197.11,435.68 C194.22,385.47 187.25,266.66 180.5,167 C179.85,157.34 179.5163,152.6934 178.8263,143.4434 " fill="none" id="Playful-to-Sleeping" style="stroke:#181818;stroke-width:1.0;"/><polygon fill="#181818" points="178.38,137.46,175.0606,146.7326,178.7519,142.4461,183.0384,146.1375,178.38,137.46" style="stroke:#181818;stroke-width:1.0;"/></g><!--link Sleeping to Flying--><g id="link_Sleeping_Flying"><path d="M166.63,137.46 C159.38,155.41 151.8265,174.1264 144.5865,192.0564 " fill="none" id="Sleeping-to-Flying" style="stroke:#181818;stroke-width:1.0;"/><polygon fill="#181818" points="142.34,197.62,149.4188,190.7723,144.2121,192.9837,142.0007,187.777,142.34,197.62" style="stroke:#181818;stroke-width:1.0;"/></g><!--SRC=[YzQALT3LjLC8pabDBSZCI-Toowa4Kc0nbzJ450KhXRpy4eMqdDHoBZ0V916j5OkiBYYrk0J4je8eWt51KW4vYPLffJbSK1hLAXW3B0en3m00]--></g></svg>